<?xml version="1.0" encoding="UTF-8"?>
<svg id="Layer_1" data-name="Layer 1" xmlns="http://www.w3.org/2000/svg" viewBox="0 0 470.95 470.95">
  <circle cx="235.47" cy="235.47" r="235.47" stroke-width="0"/>
  <path d="M261.36,79.15c25.32,14.62,50.64,29.26,75.96,43.88,1.67-1.84,4.08-2.99,6.77-2.99,5.05,0,9.15,4.09,9.15,9.14,0,.98-.16,1.92-.44,2.8,17.1,9.87,34.21,19.74,51.32,29.6,1.67-1.83,4.08-2.98,6.75-2.98,5.06,0,9.15,4.09,9.15,9.14,0,4.38-3.07,8.04-7.17,8.94v59.25c4.1.9,7.17,4.56,7.17,8.93s-3.07,8.03-7.17,8.94v59.25c4.1.9,7.17,4.56,7.17,8.93,0,5.05-4.09,9.15-9.15,9.15-2.67,0-5.08-1.15-6.75-2.98l-51.31,29.64c.28.87.43,1.79.43,2.75,0,5.05-4.1,9.15-9.15,9.15-2.67,0-5.07-1.14-6.74-2.96-17.02,9.83-34.04,19.65-51.07,29.47.11.56.17,1.15.17,1.75,0,5.05-4.1,9.14-9.15,9.14s-9.15-4.09-9.15-9.14c0-.6.06-1.19.17-1.75-17.03-9.81-34.05-19.64-51.07-29.47-1.67,1.82-4.07,2.96-6.74,2.96-5.05,0-9.14-4.1-9.14-9.15,0-.95.14-1.88.42-2.75l-51.87-29.96c-1.56,1.64-3.76,2.67-6.2,2.67-4.7,0-8.51-3.81-8.51-8.52s3.81-8.51,8.51-8.51,8.52,3.81,8.52,8.51c0,.85-.12,1.67-.36,2.45l51.88,29.94c1.25-1.36,2.91-2.35,4.78-2.76v-51.62c-8.29-.97-14.72-8.02-14.72-16.57,0-2.34.48-4.56,1.35-6.58l-57.78-33.37c-1.55,1.65-3.75,2.68-6.19,2.68-4.71,0-8.52-3.82-8.52-8.52s3.81-8.51,8.52-8.51,8.51,3.81,8.51,8.51c0,.85-.12,1.67-.35,2.45l57.78,33.36c1.72-2.31,4.03-4.15,6.69-5.32v-46.52c-5.89-2.58-10.01-8.45-10.01-15.3,0-2.34.49-4.56,1.35-6.58l-64.24-37.09c-1.55,1.64-3.75,2.67-6.19,2.67-4.7,0-8.52-3.82-8.52-8.52s3.82-8.51,8.52-8.51,8.52,3.81,8.52,8.51c0,.85-.13,1.67-.36,2.44l64.24,37.09c3.04-4.07,7.9-6.7,13.37-6.7,3.72,0,7.15,1.22,9.92,3.27l40.28-23.26c-.06-.61-.1-1.24-.1-1.88,0-2.34.48-4.56,1.35-6.58l-45.26-26.13c-1.55,1.64-3.75,2.67-6.19,2.67-4.7,0-8.52-3.81-8.52-8.52s3.82-8.51,8.52-8.51,8.52,3.81,8.52,8.51c0,.85-.13,1.67-.36,2.44l45.26,26.13c3.04-4.06,7.9-6.7,13.37-6.7s10.33,2.64,13.37,6.71l44.7-25.81c-.28-.87-.43-1.8-.43-2.77s.15-1.89.43-2.76l-75.98-43.87c-1.55,1.65-3.75,2.67-6.19,2.67-4.71,0-8.52-3.81-8.52-8.51s3.81-8.52,8.52-8.52,8.51,3.81,8.51,8.52c0,.85-.12,1.67-.35,2.44h0ZM50.92,262.75h15.53v15.53h-15.53v-15.53ZM82.2,321.6h18.26v18.26h-18.26v-18.26ZM139.84,277.52h16.35v16.35h-16.35v-16.35ZM75.82,220.22h21.01v21.01h-21.01v-21.01ZM158,215.27h15.93v15.93h-15.93v-15.93ZM59.25,154.63h22.58v22.59h-22.58v-22.59ZM87.95,76.88h20.62v20.62h-20.62v-20.62ZM150.57,125.15h21.01v21h-21.01v-21ZM172.7,63.86h21.05v21.05h-21.05v-21.05ZM258.54,112.89h17.07v17.07h-17.07v-17.07ZM350.84,135.35c-1.67,1.83-4.08,2.98-6.75,2.98s-5.09-1.15-6.76-2.98l-44.69,25.8c.87,2.02,1.35,4.25,1.35,6.59,0,.64-.04,1.27-.11,1.9l40.28,23.25c2.77-2.06,6.21-3.28,9.93-3.28,5.47,0,10.33,2.64,13.37,6.7l44.69-25.8c-.27-.88-.42-1.8-.42-2.77s.15-1.89.42-2.76l-51.31-29.63ZM408.9,176.68c-1.87-.42-3.53-1.4-4.78-2.77l-44.69,25.81c.87,2.02,1.35,4.24,1.35,6.58,0,8.55-6.43,15.6-14.72,16.58v43.97c4.65.55,8.72,3.01,11.4,6.58l44.69-25.8c-.27-.88-.42-1.8-.42-2.77,0-4.37,3.07-8.03,7.17-8.93v-59.25ZM408.9,253.8c-1.87-.42-3.53-1.4-4.78-2.77l-44.69,25.81c.87,2.02,1.35,4.24,1.35,6.58,0,8.55-6.43,15.6-14.72,16.57v51.62c1.87.41,3.53,1.4,4.78,2.76l51.31-29.62c-.27-.87-.42-1.8-.42-2.77,0-4.37,3.07-8.03,7.17-8.93v-59.25h0ZM335.37,363.31c-.28-.87-.43-1.8-.43-2.77,0-4.37,3.07-8.03,7.18-8.93v-51.62c-2.96-.35-5.68-1.46-7.95-3.15l-41.33,23.86.02.63c0,8.15-5.86,14.94-13.59,16.4v51.28c2.22.49,4.13,1.78,5.42,3.55l50.68-29.25ZM212.49,351.61c4.1.9,7.17,4.56,7.17,8.93,0,.97-.15,1.9-.43,2.77l50.67,29.25c1.3-1.77,3.21-3.06,5.43-3.55v-51.02c-8.83-.43-15.86-7.73-15.86-16.66,0-.64.04-1.27.11-1.88l-39.15-22.61c-2.27,1.69-4.99,2.8-7.94,3.15v51.62h0ZM290.18,234.25l38.48-21.56c-.81-1.97-1.26-4.13-1.26-6.39,0-.64.04-1.27.11-1.89l-40.28-23.25c-2.78,2.06-6.21,3.27-9.93,3.27s-7.15-1.21-9.92-3.27l-40.28,23.26c.07.62.1,1.25.1,1.88,0,1.65-.24,3.24-.68,4.74l38.68,22.33c3.04-3.2,7.34-5.2,12.1-5.2,5.18,0,9.82,2.37,12.88,6.08h0ZM330.59,216.12l-38.28,21.45c1.08,2.2,1.68,4.68,1.68,7.29,0,8.3-6.05,15.17-13.98,16.47l-.54,43.64c2.85.57,5.44,1.87,7.57,3.7l40.46-23.37c-.06-.61-.1-1.24-.1-1.88,0-8.55,6.43-15.59,14.72-16.57v-43.97c-4.73-.56-8.86-3.1-11.53-6.76h0ZM275.55,304.65l.53-43.14c-8.65-.63-15.47-7.84-15.47-16.65,0-3.03.8-5.87,2.22-8.32l-37.88-21.87c-1.77,3.06-4.49,5.5-7.76,6.93v46.52c5.89,2.58,10.01,8.46,10.01,15.3,0,.64-.03,1.26-.1,1.88l39.14,22.61c2.62-1.94,5.83-3.13,9.31-3.26h0Z" fill="#fff" stroke-width="0"/>
</svg>