<?xml version="1.0" encoding="UTF-8"?>
<svg id="Layer_2" data-name="Layer 2" xmlns="http://www.w3.org/2000/svg" xmlns:xlink="http://www.w3.org/1999/xlink" viewBox="0 0 41.89 35.24">
  <defs>
    <style>
      .cls-1 {
        fill: url(#linear-gradient);
      }

      .cls-2 {
        fill: #0078d4;
      }

      .cls-3 {
        fill: #0358a7;
      }

      .cls-4 {
        fill: #0364b8;
      }

      .cls-5, .cls-6 {
        fill: #fff;
      }

      .cls-7 {
        fill: #14447d;
      }

      .cls-8 {
        fill: #123b6d;
      }

      .cls-9 {
        fill: #0664b2;
      }

      .cls-10 {
        fill: #28a8ea;
      }

      .cls-11 {
        fill: #50d9ff;
      }

      .cls-12 {
        opacity: .1;
      }

      .cls-12, .cls-13, .cls-6, .cls-14, .cls-15, .cls-16, .cls-17, .cls-18 {
        isolation: isolate;
      }

      .cls-13 {
        fill: #0a2767;
        opacity: .5;
      }

      .cls-6 {
        opacity: .4;
      }

      .cls-14 {
        opacity: .05;
      }

      .cls-19 {
        fill: url(#linear-gradient-3);
      }

      .cls-20 {
        fill: url(#linear-gradient-2);
      }

      .cls-21 {
        opacity: .67;
      }

      .cls-15 {
        opacity: 0;
      }

      .cls-16 {
        opacity: .15;
      }

      .cls-17 {
        opacity: .3;
      }

      .cls-18 {
        opacity: .2;
      }
    </style>
    <linearGradient id="linear-gradient" x1="-546.05" y1="-76.06" x2="-546.95" y2="-75.48" gradientTransform="translate(13116.99 1058.12) scale(24 13.5)" gradientUnits="userSpaceOnUse">
      <stop offset="0" stop-color="#35b8f1"/>
      <stop offset=".75" stop-color="#0d64ad"/>
    </linearGradient>
    <linearGradient id="linear-gradient-2" x1="-515.25" y1="-55.92" x2="-515.25" y2="-54.61" gradientTransform="translate(4910.53 626.26) scale(9.51 9.77)" gradientUnits="userSpaceOnUse">
      <stop offset="0" stop-color="#f2f2f2"/>
      <stop offset="1" stop-color="#fff"/>
    </linearGradient>
    <linearGradient id="linear-gradient-3" x1="10.49" y1="-385.52" x2="10.49" y2="-384.21" gradientTransform="translate(0 97.82) scale(1 -1)" xlink:href="#linear-gradient-2"/>
  </defs>
  <g id="svg294">
    <g id="v">
      <g id="Outlook_32x" data-name="Outlook 32x">
        <circle id="Oval" class="cls-8" cx="40.76" cy="17.76" r="1.09"/>
        <circle id="circle225" class="cls-8" cx="11.34" cy="17.59" r="1.31"/>
        <path id="Shape" class="cls-8" d="m26.16,17.59h-15.26v.73l14.2,7.8.19.1c.55.27,1.19.27,1.74,0l.19-.1,14.2-7.8v-.73h-15.26"/>
        <path id="path228" class="cls-8" d="m26.16,17.59h-15.26v-.73l14.2-7.8.19-.1c.55-.27,1.19-.27,1.74,0l.19.1,14.14,7.81v.72h-15.2"/>
        <rect id="Rectangle-path" class="cls-10" x="13.12" y="0" width="26.11" height="32.61" rx="1.84" ry="1.84"/>
        <path id="path231" class="cls-7" d="m13.12,18.85h10.42v7.86h-10.42v-7.86Z"/>
        <path id="path233" class="cls-4" d="m22.24,18.85h9.15v7.86h-9.15v-7.86Z"/>
        <path id="path235" class="cls-9" d="m13.12,11.28h9.12v7.57h-9.12v-7.57Z"/>
        <path id="path237" class="cls-2" d="m31.39,18.85h7.85v7.86h-7.85v-7.86Zm-9.15-7.57h9.15v7.57h-9.15v-7.57ZM13.12,3.72h9.12v7.56h-9.12V3.72Z"/>
        <path id="path239" class="cls-11" d="m31.39,3.72h7.85v7.56h-7.85V3.72Z"/>
        <path id="path241" class="cls-3" d="m14.96,0h22.4c.48,0,.95.19,1.3.52.34.33.54.78.54,1.25v2H13.12V1.77C13.14.77,13.96-.02,14.96,0Z"/>
        <path id="Envelope" class="cls-1" d="m41.42,18.32l-14.2,7.79c-.06.04-.12.08-.19.11-.55.27-1.19.27-1.74,0-.07-.03-.13-.07-.19-.11l-14.18-7.79c-.27-.15-.43-.43-.43-.73v15.73c.02,1.06.89,1.91,1.95,1.89.02,0,.03,0,.05,0h27.4c1.06.04,1.95-.78,2-1.84,0-.02,0-.03,0-.05v-15.73c0,.3-.16.58-.43.73h-.04Z"/>
        <path id="path244" class="cls-13" d="m26.16,26.42c-.3,0-.6-.07-.87-.2l-14.3-7.85.64-1.1s14,7.72,14.27,7.83c.18.08.37.08.55,0l14.3-7.86.61,1.08-14.33,7.9c-.27.13-.57.2-.87.2Z"/>
        <path id="path246" class="cls-10" d="m12.43,35.24h27.46c.41,0,.82-.13,1.16-.36l-15.76-8.66c-.07-.03-.13-.07-.19-.11l-14.18-7.79-.44-.24v15.24c0,1.06.86,1.92,1.92,1.92.01,0,.02,0,.03,0Z"/>
        <g id="dropshadow" class="cls-21">
          <path id="path248" class="cls-14" d="m22.49,7.5h-10.59c-.05.08-.08.18-.08.28v19.63c.01.36.3.64.66.64h9.11c.71.01,1.3-.56,1.31-1.27,0,0,0,0,0,0V8.41c0-.35-.15-.68-.41-.91Z"/>
          <path id="path250" class="cls-12" d="m19.19,10.46h-8.72v20.24h8.72c.93.03,1.71-.7,1.74-1.63V12.07c-.04-.92-.82-1.64-1.74-1.61Z"/>
          <path id="path252" class="cls-18" d="m19.19,9.32h-8.72v20.21h8.72c.93.03,1.7-.69,1.74-1.62V10.91c-.05-.91-.83-1.62-1.74-1.59Z"/>
          <path id="path254" class="cls-12" d="m21.07,7.54h-9.11c-.36,0-.65.27-.66.63v19.64c.01.36.3.64.66.63h9.11c.7,0,1.27-.56,1.29-1.26V8.8c-.02-.7-.59-1.26-1.29-1.26Z"/>
          <path id="path256" class="cls-12" d="m21.05,8.06h-9.11c-.36,0-.65.27-.66.63v19.44c.01.36.3.64.66.63l9,.15c.75-.06,1.35-.66,1.42-1.41V9.32c-.02-.71-.6-1.27-1.31-1.26Z"/>
          <path id="path258" class="cls-15" d="m10.47,7.5v15.56h-.11v2.58c0,.35.3.64.65.63h0l7.24-1.28c.72,0,2.66-.6,2.66-1.3V7.84c0-.12-.03-.23-.07-.34h-10.37Z"/>
          <path id="path260" class="cls-18" d="m19.19,9.85h-8.72v20.24h8.72c.93.03,1.71-.7,1.74-1.63V11.46c-.04-.92-.82-1.64-1.74-1.61Z"/>
          <path id="path262" class="cls-17" d="m19.19,8.07h-8.72v19.82h8.72c.93.02,1.7-.7,1.74-1.63V9.7c-.04-.93-.81-1.65-1.74-1.63Z"/>
          <path id="path264" class="cls-17" d="m19.19,8.07h-8.72v19.72h8.72c.93.03,1.71-.7,1.74-1.63V9.7c-.04-.93-.81-1.65-1.74-1.63Z"/>
          <path id="path266" class="cls-17" d="m19.19,8.48h-8.72v20.24h8.72c.93.02,1.7-.7,1.74-1.63V10.09c-.04-.92-.82-1.64-1.74-1.61Z"/>
          <path id="path268" class="cls-18" d="m19.19,8.86h-8.72v20.24h8.72c.93.03,1.71-.7,1.74-1.63V10.47c-.04-.92-.82-1.64-1.74-1.61Z"/>
          <path id="path270" class="cls-12" d="m20.83,8.64h-9.11c-.35,0-.64.28-.65.63,0,0,0,0,0,0v18.44c0,.35.3.64.65.63h9.11c.71.02,1.29-.54,1.31-1.25,0,0,0,0,0-.01V9.9c-.02-.71-.6-1.27-1.31-1.26Z"/>
          <path id="path272" class="cls-18" d="m19.83,8.64h-9.12c-.08,0-.16.02-.24.05v19.19c.08.02.16.02.24,0h9.12c.71.01,1.29-.55,1.3-1.26,0,0,0,0,0,0V9.9c-.01-.71-.59-1.27-1.3-1.26,0,0,0,0,0,0Z"/>
          <path id="path274" class="cls-17" d="m17.54,7.55h-6.64c-.35,0-.64.28-.65.63,0,0,0,0,0,0v18.44c0,.35.3.64.65.63h9.12c.71.03,1.31-.51,1.34-1.22,0-.01,0-.03,0-.04V9.37c0-.75-1.77-1.16-2-1.38-.56-.29-1.19-.44-1.82-.44Z"/>
          <path id="path276" class="cls-12" d="m20.36,9.55h-9.08c-.35,0-.64.28-.65.63,0,0,0,0,0,0v18.44c0,.35.3.64.65.63h9.08c.71.01,1.29-.55,1.31-1.26V10.81c-.02-.71-.6-1.27-1.31-1.26Z"/>
          <path id="path278" class="cls-12" d="m19.58,6.93h-6.5v5.61h-2.61v10.87h-.11v2.59c0,.35.3.64.65.63h0l7.22-1.31c.72,0,2.66-.61,2.66-1.3v-15.83c-.02-.71-.6-1.27-1.31-1.26Z"/>
          <path id="path280" class="cls-16" d="m19.58,7.24h-6.5v5.3h-2.61v11.19h-.11v2.59c0,.35.3.64.65.63h0l7.24-1.28c.72,0,2.66-.6,2.66-1.3v-15.86c-.01-.71-.6-1.28-1.31-1.27,0,0-.01,0-.02,0Z"/>
        </g>
        <path id="Back_Plate" data-name="Back Plate" class="cls-2" d="m1.75,7.5h17.44c.94-.02,1.72.74,1.74,1.68,0,0,0,0,0,0v16.82c0,.45-.18.87-.51,1.18-.33.32-.77.5-1.23.5H1.75c-.46,0-.9-.18-1.23-.5-.33-.31-.52-.73-.52-1.18V9.18c.02-.95.8-1.7,1.75-1.68Z"/>
        <path id="path284" class="cls-5" d="m5.02,14.44c.47-.97,1.23-1.78,2.17-2.32,1.06-.57,2.26-.84,3.46-.8,1.12-.02,2.22.25,3.2.8.9.51,1.64,1.28,2.12,2.2.51,1.01.76,2.13.74,3.26.02,1.18-.24,2.35-.77,3.41-.48.96-1.24,1.76-2.18,2.29-2.07,1.07-4.52,1.07-6.59,0-.91-.52-1.65-1.29-2.14-2.22-.51-1-.77-2.1-.75-3.22-.02-1.17.23-2.33.74-3.38v-.02Zm2.34,5.44c.25.61.67,1.14,1.22,1.52.56.38,1.23.58,1.91.56.71.02,1.41-.18,2-.57.54-.38.96-.91,1.19-1.53.26-.68.39-1.4.38-2.13,0-.74-.11-1.47-.36-2.16-.22-.63-.61-1.18-1.14-1.58-.58-.41-1.29-.62-2-.6-.69-.02-1.37.18-1.95.56-.55.38-.99.91-1.25,1.53-.57,1.41-.57,2.99,0,4.4Z"/>
        <path id="Group" class="cls-6" d="m5.02,14.44c.47-.97,1.23-1.78,2.17-2.32,1.06-.57,2.26-.84,3.46-.8,1.12-.02,2.22.25,3.2.8.9.51,1.64,1.28,2.12,2.2.51,1.01.76,2.13.74,3.26.02,1.18-.24,2.35-.77,3.41-.48.96-1.24,1.76-2.18,2.29-2.07,1.07-4.52,1.07-6.59,0-.91-.52-1.65-1.29-2.14-2.22-.51-1-.77-2.1-.75-3.22-.02-1.17.23-2.33.74-3.38v-.02Zm2.34,5.44c.25.61.67,1.14,1.22,1.52.56.38,1.23.58,1.91.56.71.02,1.41-.18,2-.57.54-.38.96-.91,1.19-1.53.26-.68.39-1.4.38-2.13,0-.74-.11-1.47-.36-2.16-.22-.63-.61-1.18-1.14-1.58-.58-.41-1.29-.62-2-.6-.69-.02-1.37.18-1.95.56-.55.38-.99.91-1.25,1.53-.57,1.41-.57,2.99,0,4.4Z"/>
        <path id="path287" class="cls-20" d="m5.02,14.44c.47-.97,1.23-1.78,2.17-2.32,1.06-.57,2.26-.84,3.46-.8,1.12-.02,2.22.25,3.2.8.9.51,1.64,1.28,2.12,2.2.51,1.01.76,2.13.74,3.26.02,1.18-.24,2.35-.77,3.41-.48.96-1.24,1.76-2.18,2.29-2.07,1.07-4.52,1.07-6.59,0-.91-.52-1.65-1.29-2.14-2.22-.51-1-.77-2.1-.75-3.22-.02-1.17.23-2.33.74-3.38v-.02Zm2.34,5.44c.25.61.67,1.14,1.22,1.52.56.38,1.23.58,1.91.56.71.02,1.41-.18,2-.57.54-.38.96-.91,1.19-1.53.26-.68.39-1.4.38-2.13,0-.74-.11-1.47-.36-2.16-.22-.63-.61-1.18-1.14-1.58-.58-.41-1.29-.62-2-.6-.69-.02-1.37.18-1.95.56-.55.38-.99.91-1.25,1.53-.57,1.41-.57,2.99,0,4.4Z"/>
        <path id="path289" class="cls-19" d="m5.02,14.44c.47-.97,1.23-1.78,2.17-2.32,1.06-.57,2.26-.84,3.46-.8,1.12-.02,2.22.25,3.2.8.9.51,1.64,1.28,2.12,2.2.51,1.01.76,2.13.74,3.26.02,1.18-.24,2.35-.77,3.41-.48.96-1.24,1.76-2.18,2.29-2.07,1.07-4.52,1.07-6.59,0-.91-.52-1.65-1.29-2.14-2.22-.51-1-.77-2.1-.75-3.22-.02-1.17.23-2.33.74-3.38v-.02Zm2.34,5.44c.25.61.67,1.14,1.22,1.52.56.38,1.23.58,1.91.56.71.02,1.41-.18,2-.57.54-.38.96-.91,1.19-1.53.26-.68.39-1.4.38-2.13,0-.74-.11-1.47-.36-2.16-.22-.63-.61-1.18-1.14-1.58-.58-.41-1.29-.62-2-.6-.69-.02-1.37.18-1.95.56-.55.38-.99.91-1.25,1.53-.57,1.41-.57,2.99,0,4.4Z"/>
      </g>
    </g>
  </g>
</svg>