<?xml version="1.0" encoding="UTF-8"?>
<svg id="shields" xmlns="http://www.w3.org/2000/svg" viewBox="0 0 234.6 234.6">
  <defs>
    <style>
      .cls-1 {
        fill: #252f3e;
      }

      .cls-2 {
        fill: #f90;
        fill-rule: evenodd;
      }
    </style>
  </defs>
  <path class="cls-1" d="m68.46,98.99c0,2.75.3,4.99.82,6.63.6,1.64,1.34,3.42,2.38,5.36.37.6.52,1.19.52,1.71,0,.74-.45,1.49-1.41,2.23l-4.69,3.13c-.67.45-1.34.67-1.94.67-.74,0-1.49-.37-2.23-1.04-1.04-1.12-1.94-2.31-2.68-3.5-.74-1.27-1.49-2.68-2.31-4.39-5.81,6.85-13.1,10.27-21.89,10.27-6.25,0-11.24-1.79-14.89-5.36-3.65-3.57-5.51-8.34-5.51-14.29,0-6.33,2.23-11.46,6.77-15.33,4.54-3.87,10.57-5.81,18.24-5.81,2.53,0,5.14.22,7.89.6s5.58.97,8.56,1.64v-5.43c0-5.66-1.19-9.6-3.5-11.91-2.38-2.31-6.4-3.42-12.13-3.42-2.61,0-5.29.3-8.04.97-2.75.67-5.43,1.49-8.04,2.53-1.19.52-2.08.82-2.61.97-.52.15-.89.22-1.19.22-1.04,0-1.56-.74-1.56-2.31v-3.65c0-1.19.15-2.08.52-2.61s1.04-1.04,2.08-1.56c2.61-1.34,5.73-2.46,9.38-3.35,3.65-.97,7.52-1.41,11.61-1.41,8.86,0,15.33,2.01,19.5,6.03,4.09,4.02,6.18,10.12,6.18,18.31v24.12h.15Zm-30.22,11.32c2.46,0,4.99-.45,7.67-1.34,2.68-.89,5.06-2.53,7.07-4.76,1.19-1.41,2.08-2.98,2.53-4.76s.74-3.95.74-6.48v-3.13c-2.16-.52-4.47-.97-6.85-1.27s-4.69-.45-7-.45c-4.99,0-8.64.97-11.09,2.98-2.46,2.01-3.65,4.84-3.65,8.56,0,3.5.89,6.1,2.75,7.89,1.79,1.86,4.39,2.75,7.82,2.75Zm59.78,8.04c-1.34,0-2.23-.22-2.83-.74-.6-.45-1.12-1.49-1.56-2.9l-17.49-57.54c-.45-1.49-.67-2.46-.67-2.98,0-1.19.6-1.86,1.79-1.86h7.3c1.41,0,2.38.22,2.9.74.6.45,1.04,1.49,1.49,2.9l12.51,49.28,11.61-49.28c.37-1.49.82-2.46,1.41-2.9.6-.45,1.64-.74,2.98-.74h5.96c1.41,0,2.38.22,2.98.74.6.45,1.12,1.49,1.41,2.9l11.76,49.88,12.88-49.88c.45-1.49.97-2.46,1.49-2.9.6-.45,1.56-.74,2.9-.74h6.92c1.19,0,1.86.6,1.86,1.86,0,.37-.07.74-.15,1.19-.07.45-.22,1.04-.52,1.86l-17.94,57.54c-.45,1.49-.97,2.46-1.56,2.9s-1.56.74-2.83.74h-6.4c-1.41,0-2.38-.22-2.98-.74s-1.12-1.49-1.41-2.98l-11.54-48.01-11.46,47.94c-.37,1.49-.82,2.46-1.41,2.98-.6.52-1.64.74-2.98.74h-6.4Zm95.66,2.01c-3.87,0-7.74-.45-11.46-1.34-3.72-.89-6.63-1.86-8.56-2.98-1.19-.67-2.01-1.41-2.31-2.08-.3-.67-.45-1.41-.45-2.08v-3.8c0-1.56.6-2.31,1.71-2.31.45,0,.89.07,1.34.22.45.15,1.12.45,1.86.74,2.53,1.12,5.29,2.01,8.19,2.61,2.98.6,5.88.89,8.86.89,4.69,0,8.34-.82,10.87-2.46,2.53-1.64,3.87-4.02,3.87-7.07,0-2.08-.67-3.8-2.01-5.21-1.34-1.41-3.87-2.68-7.52-3.87l-10.79-3.35c-5.43-1.71-9.45-4.24-11.91-7.59-2.46-3.28-3.72-6.92-3.72-10.79,0-3.13.67-5.88,2.01-8.26,1.34-2.38,3.13-4.47,5.36-6.1,2.23-1.71,4.76-2.98,7.74-3.87,2.98-.89,6.1-1.27,9.38-1.27,1.64,0,3.35.07,4.99.3,1.71.22,3.28.52,4.84.82,1.49.37,2.9.74,4.24,1.19,1.34.45,2.38.89,3.13,1.34,1.04.6,1.79,1.19,2.23,1.86.45.6.67,1.41.67,2.46v3.5c0,1.56-.6,2.38-1.71,2.38-.6,0-1.56-.3-2.83-.89-4.24-1.94-9.01-2.9-14.29-2.9-4.24,0-7.59.67-9.9,2.08s-3.5,3.57-3.5,6.63c0,2.08.74,3.87,2.23,5.29,1.49,1.41,4.24,2.83,8.19,4.09l10.57,3.35c5.36,1.71,9.23,4.09,11.54,7.15,2.31,3.05,3.42,6.55,3.42,10.42,0,3.2-.67,6.1-1.94,8.64-1.34,2.53-3.13,4.76-5.43,6.55-2.31,1.86-5.06,3.2-8.26,4.17-3.35,1.04-6.85,1.56-10.65,1.56Z"/>
  <g>
    <path class="cls-2" d="m207.75,156.53c-24.49,18.09-60.07,27.69-90.67,27.69-42.88,0-81.51-15.86-110.69-42.21-2.31-2.08-.22-4.91,2.53-3.28,31.56,18.31,70.5,29.4,110.77,29.4,27.17,0,57.02-5.66,84.49-17.27,4.09-1.86,7.59,2.68,3.57,5.66Z"/>
    <path class="cls-2" d="m217.94,144.92c-3.13-4.02-20.69-1.94-28.66-.97-2.38.3-2.75-1.79-.6-3.35,14-9.83,37-7,39.68-3.72,2.68,3.35-.74,26.35-13.85,37.37-2.01,1.71-3.95.82-3.05-1.41,2.98-7.37,9.6-23.97,6.48-27.92Z"/>
  </g>
</svg>