<?xml version="1.0" encoding="UTF-8"?>
<svg id="Layer_2" data-name="Layer 2" xmlns="http://www.w3.org/2000/svg" viewBox="0 0 39.45 33.76">
  <defs>
    <style>
      .cls-1 {
        fill: #fff;
      }

      .cls-2 {
        fill: #103f91;
      }

      .cls-3 {
        fill: #41a5ee;
      }

      .cls-4 {
        fill: #185abd;
      }

      .cls-5 {
        fill: #2b7cd3;
      }

      .cls-6 {
        opacity: .1;
      }

      .cls-6, .cls-7, .cls-8, .cls-9, .cls-10, .cls-11 {
        isolation: isolate;
      }

      .cls-7 {
        opacity: .05;
      }

      .cls-12 {
        opacity: .67;
      }

      .cls-8 {
        opacity: 0;
      }

      .cls-9 {
        opacity: .15;
      }

      .cls-10 {
        opacity: .3;
      }

      .cls-11 {
        opacity: .2;
      }
    </style>
  </defs>
  <g id="svg294">
    <g id="Word_32x" data-name="Word 32x">
      <g id="icon">
        <path id="Path-28" class="cls-3" d="m11.51,0h26.29c.9,0,1.64.72,1.65,1.62v30.53c-.01.9-.75,1.62-1.65,1.61H11.51c-.44,0-.85-.17-1.17-.47-.31-.3-.48-.71-.48-1.14V1.62c0-.43.17-.85.48-1.15C10.66.18,11.08.01,11.51,0h0Z"/>
        <path id="Path-29" class="cls-2" d="m39.45,25.33H9.86v6.82c.01.9.75,1.62,1.65,1.61h26.29c.9.01,1.64-.71,1.65-1.61h0s0-6.82,0-6.82Z"/>
        <path id="Rectangle-10" class="cls-4" d="m9.86,16.89h29.59v8.44H9.86v-8.44Z"/>
        <path id="Rectangle-11" class="cls-5" d="m9.86,8.45h29.59v8.44H9.86v-8.44Z"/>
      </g>
      <g id="dropshadow-2" class="cls-12">
        <path id="Path-30" class="cls-7" d="m20.35,6.9h-8.58c-.34,0-.61.26-.62.6h0v18.79c.02.33.29.6.62.6h8.58c.67,0,1.21-.54,1.22-1.21V8.15c0-.66-.53-1.2-1.19-1.21-.01,0-.02,0-.03,0v-.04Z"/>
        <path id="Path-31" class="cls-6" d="m18.06,10.07h-8.2v19.36h8.2c.88.02,1.61-.68,1.64-1.56V11.58c-.05-.86-.77-1.53-1.64-1.51Z"/>
        <path id="Path-32" class="cls-11" d="m18.06,8.96h-8.2v19.35h8.2c.88.02,1.61-.68,1.64-1.56V10.51c-.03-.88-.76-1.57-1.64-1.55Z"/>
        <path id="Path-33" class="cls-6" d="m19.86,7.28h-8.58c-.33,0-.6.26-.61.59,0,0,0,0,0,.01v18.78c0,.33.27.6.6.6,0,0,0,0,.01,0h8.58c.67,0,1.22-.53,1.23-1.2V8.48c-.01-.67-.56-1.21-1.23-1.2Z"/>
        <path id="Path-34" class="cls-6" d="m19.83,7.78h-8.57c-.34,0-.61.26-.62.6h0v18.59c0,.33.27.6.6.6,0,0,.01,0,.02,0h8.57c.67.02,1.22-.51,1.24-1.18,0,0,0-.01,0-.02V8.98c-.01-.67-.57-1.21-1.24-1.2,0,0,0,0,0,0h0Z"/>
        <path id="Path-35" class="cls-8" d="m18.45,6.36h-8.57v15.79h-.12v2.47c0,.33.27.6.6.6,0,0,0,0,.01,0l6.86-1.23c.68,0,2.51-.57,2.51-1.24V7.56c0-.67-.55-1.21-1.22-1.2-.01,0-.02,0-.03,0h-.04Z"/>
        <path id="Path-36" class="cls-11" d="m18.06,9.49h-8.2v19.35h8.2c.88.02,1.61-.67,1.64-1.55V11.04c-.03-.88-.76-1.57-1.64-1.55Z"/>
        <path id="Path-37" class="cls-10" d="m18.06,7.79h-8.2v19h8.2c.88.03,1.63-.66,1.66-1.54,0-.03,0-.07,0-.1v-15.81c-.03-.88-.76-1.58-1.65-1.55,0,0,0,0-.01,0Z"/>
        <path id="Path-38" class="cls-10" d="m18.06,7.79h-8.2v18.87h8.2c.87.03,1.61-.64,1.66-1.51v-15.81c-.03-.88-.76-1.58-1.65-1.55,0,0,0,0-.01,0Z"/>
        <path id="Path-39" class="cls-10" d="m18.06,8.15h-8.2v19.38h8.2c.88.02,1.61-.67,1.64-1.55V9.73c-.01-.88-.74-1.59-1.62-1.58,0,0-.01,0-.02,0Z"/>
        <path id="Path-40" class="cls-11" d="m18.06,8.54h-8.2v19.36h8.2c.88.02,1.61-.68,1.64-1.56V10.15c0-.88-.71-1.6-1.59-1.61-.02,0-.03,0-.05,0Z"/>
        <path id="Path-41" class="cls-6" d="m19.64,8.33h-8.58c-.34,0-.61.26-.62.6h0v17.64c0,.34.28.61.62.6h8.58c.67,0,1.21-.53,1.22-1.2,0,0,0,0,0-.01V9.54c0-.67-.55-1.21-1.22-1.21Z"/>
        <path id="Path-42" class="cls-11" d="m18.68,8.33h-8.57c-.08-.02-.15-.02-.23,0v18.42c.08.01.15.01.23,0h8.57c.67,0,1.22-.54,1.23-1.21h0V9.54c0-.67-.56-1.22-1.23-1.21h0Z"/>
        <path id="Path-43" class="cls-10" d="m16.52,7.29h-6.23c-.33,0-.61.27-.62.6v17.63c0,.34.28.61.62.6h8.57c.67,0,1.22-.53,1.23-1.2v-15.89c0-.72-1.66-1.1-1.85-1.32-.53-.27-1.12-.42-1.72-.42Z"/>
        <path id="Path-44" class="cls-6" d="m19.22,9.2h-8.57c-.33,0-.61.27-.62.6v17.64c.01.33.29.6.62.6h8.57c.67,0,1.22-.54,1.23-1.21h0V10.41c0-.67-.55-1.21-1.22-1.21h0Z"/>
        <path id="Path-45" class="cls-6" d="m18.45,6.69h-8.57v15.77h-.12v2.47c0,.33.27.6.6.6,0,0,0,0,.01,0l6.86-1.22c.68,0,2.51-.58,2.51-1.25V7.88c-.02-.68-.58-1.21-1.26-1.19h-.03Z"/>
        <path id="Path-46" class="cls-9" d="m18.45,7.03h-8.57v15.73h-.12v2.47c0,.33.27.6.6.6,0,0,0,0,.01,0l6.86-1.22c.68,0,2.51-.58,2.51-1.25v-15.16c-.03-.67-.59-1.2-1.27-1.17,0,0,0,0-.01,0h-.01Z"/>
      </g>
      <path id="Back_Plate-2" data-name="Back Plate-2" class="cls-4" d="m1.64,7.24h16.42c.9,0,1.63.71,1.64,1.61v16.07c0,.9-.74,1.63-1.64,1.62H1.64c-.43,0-.85-.18-1.16-.48C.17,25.76,0,25.35,0,24.92V8.84c.02-.89.75-1.61,1.64-1.6Z"/>
      <path id="Letter" class="cls-1" d="m14.91,22.92h-2.21l-2.59-8.32-2.71,8.32h-2.22l-2.47-12.06h2.22l1.72,8.44,2.59-8.2h1.85l2.47,8.2,1.72-8.44h2.1l-2.47,12.06Z"/>
    </g>
  </g>
</svg>