<?xml version="1.0" encoding="UTF-8"?>
<svg id="shields" xmlns="http://www.w3.org/2000/svg" viewBox="0 0 182.14 162.49">
  <g id="layer1">
    <path id="path2900" d="m54.43,144.69c-6.94-5.46-14.34-10.69-19.4-18.06-10.64-12.99-18.84-28.04-24.44-43.85-3.39-10.28-4.55-21.3-8.91-31.18-4.57-7.18.78-15.02,8.64-17.31,3.5-.67,9.66-3.97,2.23-1.61-6.66,4.89-7.31-4.44-.48-5.03,4.66-.62,6.38-4.44,4.78-7.87-5-3.26,12.13-6.85,3.51-11.72-8.98-9.69,12.56-11.56,7.25-.55-1.27,8.46,15.06-1.55,11.27,8.22,3.85,4.69,14.42,1.07,14.16,7.65,5.61.39,7.53,5.11,12.8,5.47,5.46,2.46,15.35,4.41,17.21,10.56-5.41,4.29-17.95-8.85-18.55,3.01,1.64,17.53,1.22,35.59,7.63,52.28,3.03,10.11,10.39,18.06,17.03,25.94,6.35,7.71,14.96,13.14,23.73,17.71,7.7,3.63,15.99,6.04,24.38,7.55,3.4-2.6,9.41-12.28,14.71-8.2.25,4.58-10.53,9.58-.51,9.07,5.89-1.78,9.97,4.55,14.82-1.16,4.47,5.29,18.56-3.38,15.39,7.43-4.3,2.77-10.56,1.1-14.87,4.91-7.1-3.54-12.75,3.17-20.6,2.32-8.72,1.56-17.6,2.19-26.45,2.21-14.51-1.15-29.33-1.63-43.13-6.68-7.78-2.26-15.37-6.69-22.2-11.12h0Zm12.26,5.31c7.59,3.28,15.02,6.75,23.34,7.79,13.2,1.84,26.84,4.66,40.09,2.08-6-2.71-12.2,1.05-18.17-1.94-7.17,1.54-14.86-.39-22.14-1.35-8.28-3.69-17.22-6.23-24.98-11.02-9.69-3.54,5.01,4.54,7.63,5.2,6.06,3.44-6.66-1.76-8.46-3.19-5.08-2.85-5.72-2.25-.5.64,1.05.62,2.09,1.26,3.19,1.78h0Zm-14.45-10.21c7.36,2.73-.03-5.17-3.4-4.72-1.49-2.59-5.71-4.23-2.74-5.62-5.35,1.86-5.6-7.06-8.11-5.79-5.66-1.79-2.2-8.11-8.94-12-.62-4.09-6.69-7.65-8.63-13.82-.86-3.16-6.87-12.24-3.18-3.79,3.14,8.13,8.68,15.1,13.28,22.06,3.58,6.63,7.8,13.55,14.31,17.68,2.19,2.11,4.31,5.33,7.41,5.99h0Zm-21.2-23.27c.26-1.11,1.35,2.41,0,0Zm30.01,26.54c1.63-.73-2.34-.92,0,0Zm3.99,1.46c-.41-2.01-1.82,1.13,0,0Zm5,2.09c2.38-2.27-3.67-1.43,0,0Zm8.57,4.78c1.45-2.14-4.63-.81,0,0Zm-16.46-11.47c3.7-2.39-4.78-.03,0,0Zm3.75,1.87c-.1-1.26-1.34.57,0,0Zm18.75,11.7c3.01,1.9,17.6,4.17,8.47.78-1.53.32-16.93-4.36-8.47-.78Zm-29.76-23.18c-.29-1.27-4.68-1.4,0,0Zm8.73,5.09c2.27-1.58-4.71-1.22,0,0Zm7.34,4.5c3.26-1.23-5.29-1.23,0,0Zm-19.62-13.46c3.54,2.71,14.26.35,5.42-1.62-4.03-2.15-13.1-3.62-6.92,1.29l1.5.32h0Zm24.59,15.01c1.47-2.51-6.18-1.43,0,0Zm-7.47-5.94c8.65,2.45-7.27-5.47-2.13-.9l1.14.52.99.38h0Zm14.98,8.66c8.19.08-7.4-1.13,0,0h0Zm-35.25-22.47c-.32-1.53-2.02.13,0,0Zm49.1,30.24c.22-2.76-2.67,2.05,0,0Zm-35.13-21.68c-.5-1.45-2.56-.06,0,0Zm-13.2-9.52c4.7-.28-6.44-2.07,0,0Zm-15.64-10.11c-.59-2.25-5.12-4.05,0,0Zm41.05,26.05c-.86-.98-.41.21,0,0Zm25.55,15.68c-.08-1.5-1.39.57,0,0Zm-27.81-18.01c.46-1.93-4.01-.59,0,0Zm-19.03-12.06c3.5-.37-5.6-2.36,0,0Zm32.2,20.01c5.45-2.16-5.31-1.05,0,0Zm-16.75-11.37c6.28.81-7.47-4.27-1.38-.45l1.38.45h0Zm21.83,13.42c5.86-3.51,3.93,8.21,9.95.99,5.94-4.33-5.13,5.36,2.19.77,5.29-3.54,13.11,1.68,18.05,3.38,3.55-.17,7,3.07,10.64,1.1,7.01-1.89-13.7-2.8-8.27-6.15-6.41,1.87-11.15-2.22-14.3-6.33-7.19-1.66-15.51-5.34-19.1-11.7-1.46-2.39,2.11.34-1.26-3.57-4.33-3.85-6.5-8.23-9.41-12.92-3.48-1.85-3.88-7.31-4.23-.18.03-4.5-4.2-7.53-5.23-6.27-.02-4.33,4.52-2.16,1.34-5.37-.68-4.49-2.94-9.17-3.61-14.24-1.05-2.44-.15-7.68-3.59-2.15-1.25,5.85-.42-7.19,1.53-2.89,2.56-4.39-.92-3.87-1.06-3.26,1.67-3.7,1.05-8.95-.43-6.95.89-3.92,1.4-14.43-1.33-12.57,1.66-4.1,3.14-18.77-4.05-13.17-2.91.04-7.96,1.06-10.35,2.24,7.48,4.12-.75,1.49-3.8.83-.4,3.81-3.41,2.16-7.18,2.2,6.02.74-2.93,6.15-6.38,4.05-4.48,2.14,3.87,7.49.09,9.14.46,2.49-6.87-.9-6.29,4.86-4.35-1.83-.6,6.83,1.58,3.9,7.4,2,5.21,6.57,5.4,10.91-1.21,2.53-5.95-5.94-1.06-5.55-3.86-6.28-4.27-2.27-7.48.65-.75.21,8.19,4.15,2.58,6.1,4.93.76,5.07,5.08,6.08,7.81,2.97,3.09,2.36-3.41,5.91.3-2.25-3.31-11.89-9.32-4.13-7.39-.04-3.33-1.4-6.01.97-5.95,2.36-4.27-2.47,10.52,2.84,5.1,1.47-.64,1.83-4.27,4.48.34,3.84,3.78,1.39,6.51-4.03,3.06.97,3.29,7.24,4.46,6.07,9.6,1.25,4.52,3,2.86,4.52,2.59,1.2,4.39,1.88,1.16,1.93-.93,5.48,1.17,4.19,4.41,5.91,6.67,3.77,1.7-5.4-11.55,1.08-3.98,6.82,6.15,2.56,8.72-3.56,7.74,3.87-.31,5.12,5.23,9.96,5.04,4.42,2.1,7.41,10.17-.21,6.81-2.64-2.38-11.98-5.32-4.35-.79,7.05,3.26,12.65,5.22,19.44,9.31,4.86,3.47,6.97,7.45,8.81,8.24-4.09,1.95-12.32-1.56-6.21-2.64-3.81-.69-8.1-2.62-4.45,2.13,3.11,2.59,11,2.32,12.42,2.61-1.2,2.64-3.26,2.85.05,3.06-3.69,1.97,1.18,2.27,1.53,3.4h0Zm-7.55-21.31c-2.25-2.35-2.83-6.75-.4-2.92,1.24.5,3.99,7.19.4,2.92h0Zm24.58,15.61c1.4-.09.04,1.06,0,0Zm-28.13-21.37c-.09-3.55.81,2.74,0,0Zm-2.44-3.29c-2.82-5.46,3.56,1.55,0,0Zm-29.61-20.43c1.66-.44.82,2.84,0,0Zm23.56,12.77c1.02-3.83,1.2,3.21,0,0Zm-16.65-11.57c-1.17-2.11,2.45,1.98,0,0Zm14.29,4.58c-2.68-6,1.89-3.27.59.98l-.59-.98h0Zm-24.64-16.43c-1.2-1.97-3.18-7.74-2.54-9.5.58,2.87,6.1,12.35,2.71,3.93-3.75-7.06,4.48,2.29,5.33,4.05.39,1.75-2.31-.48-.48,3.63-3.34-4.68-1.97,2.58-5.02-2.11Zm-7.61-5.25c.31-4.57,1.74,3.14,0,0Zm3.42,1.18c1.63-3.45,2.77,4.81,0,0Zm-8.24-6.37c-2.83-2.82-4.89-5.41.13-1.75,1.93.08-4.3-5.9.47-1.9,5.01.91,2.47,8.21-.6,3.65Zm4.33-.11c1.65-1.63.87,1.61,0,0Zm2.66.85c-2.5-4.68,3.03,1.96,0,0Zm-5.29-5.06c-8.24-7.33,10.35,3.83,1.35,1.36l-1.35-1.36s0,0,0,0Zm23.61,13.72c-3.57-2.14-.95-15.05.27-6.22,3.47-1.12-.19,4.56,2.39,4.51-.41,3.59-1.56,4.87-2.67,1.71Zm8.73,5.16c.35-3.89.74,2.66,0,0Zm-1.52-1.5c.39-1.66.04,1.96,0,0Zm-29.21-19.79c-5.29-7.3,15.39,7.39,3.39,1.85-1.25-.33-2.76-.44-3.39-1.85Zm16.82,8.92c-.5-6.15,1.12,1.02,0,0h0Zm12.77,8.19c.99-3.5.07,2.32,0,0Zm-28.77-19.89c3.15-.67,13.04,5.53,3.95,1.77-1.01-1.12-3.16-.61-3.95-1.77Zm27.02,13.47c.34-6.29,1.88-3.76.01.9v-.9s-.01,0-.01,0h0Zm-24.68-15.65c1.28-1.88-3.4-8.5.68-2.38,1.76,1.4,5.1,2.35,2.15,2.93,4.64,4.09-1.13,1.11-2.83-.56Zm23.34,13.69c.89-7.16.78,4.2,0,0Zm-26.02-20.31c.98-.42.52,1.3,0,0Zm6.09,3.62c1.57-3.29,2.89,3.67,0,0Zm17.17,9.55c-.02-1.26.32,1.84,0,0Zm-.99-2.2c-2.38-5.88,2.22,3.11,0,0Zm-1.46-3.86c-.4-2.43,1.36,3.05,0,0h0Zm2.38-3.87c-1.64-2.88,2.07-12.7,2.48-6.61-1.73,4.75-.5,7.4.71,1.04,2.22-5.01-.48,9.88-3.18,5.58,0,0,0,0,0,0Zm2.45-14.6c.71-.88.16,1.05,0,0Zm-4.09,80.55c-.97-.85.12.54,0,0Zm8.42,4.26c4.68,1.2,4.66-.73.43-1.3-2.28-2.12-9.46-4.37-3.03-.26.43,1.08,1.77,1.05,2.6,1.57h0Zm-16.63-11.05c2.58,1.92,9.72,5.45,3.68.73,2.04-2.37-3.9-3.63-1.93-5.21-5.01-3.07-3.95-2.79-.44-2.7-6.02-2.69.87-2.49.54-3.87-2.32-.46-11.53-4.09-6.11.3-5.51-2.81-1.31,1.05-2.98.64-5.63-1.54,5.02,4.29-.89,2.84,3.23,2.56,8.7,6.56,1.37,2.71-.97,1.39,5.25,3.5,6.77,4.55h0Zm8.81,5.06c10.71,3.45-5.25-4.22,0,0Zm45.08,27.31c.14-2.12-1.46,1.81,0,0Zm4.63,1.95c2.47-2.39.1,3.81,4.09-.59.04-3.15-.12-5.01-4.59-1.18-1.23.68-1.78,3.59.49,1.77h0Zm-73.56-46.2c-.76-2.98-5.32-2.97,0,0Zm4.95,3.24c-1.84-3.05-6.56-2.76,0,0Zm28.15,16.98c2.75,2.44,12.62,1.79,3.34.3-1.38-2.03-8.73-1.54-3.34-.3Zm38.7,23.9c4.23-3.55-4.1,1.58,0,0Zm8.8,6.05c.03-1.14-1.82.5,0,0Zm.01-1.59c4.68-4.96-4.54.29,0,0h0ZM21.29,94.47c-3.99-5.7-2.48-8.26-6.33-12.91-.73-3.56-6.6-11.63-3.04-3.08,3.27,5,4.24,12.74,9.37,15.99Zm91.31,57.18c8.62-5.57-3.54-2.43,0,0Zm6.58,2.58c4.32-3.71-2.73-.77,0,0ZM31.99,98.36c1.24-1.84-3.19-.24,0,0Zm85.81,54.1c4.18-2.69-.96-2.28-.76.25l.76-.25h0Zm-56.71-35.74c-.14-1.82-2.21.15,0,0Zm3.5,2.02c-1.11-2.25-1.71.35,0,0Zm59.91,35.55c5.35-3.86-3.24-.74-1.12.73l1.12-.73h0Zm-2.05-.99c4.36-3.65-4.6,1.62,0,0Zm10.47,6.97c2.93-1.96-3.56-.63,0,0Zm-98.25-63.23c3.92.88,15.68,9.67,8.75.61-3.55-1.05-1.42-9.74-5.05-8.2,2.43,4.06,2,5.79-3.11,3.23-6.42-3.13-3.61,1.55-2.35,2.84-1.71.39,2.26,1.48,1.76,1.52h0Zm-17.88-14.12c.7-2.91-6.47-15.99-3.39-6.55,1.11,1.98,1,5.72,3.39,6.55Zm32.82,20.23c-2.02-1.69-.1-.24,0,0Zm4.98,1.16c0-3.08-5.5-1.25,0,0Zm43.13,27.19c-.82-2.1-3.25-.05,0,0h0Zm2.07,1.51c-.31-1.18-1.19.23,0,0Zm17.09,10.77c1.64-1.21-2.05-.16,0,0ZM25.72,85.2c4.7-1.82-5.04-1.3,0,0Zm68.19,42.96c-.05-3.04-3,.76,0,0ZM23.87,80.87c3.02-1.02-2.79-.67,0,0Zm8.77,4.25c-.05-1-.93.38,0,0Zm106.94,65.58c3.88-.79,12.74,1.98,14.17-1.03-4.72-.11-16.32-3.33-16.87.77l1.03.16,1.67.1h0s0,0,0,0ZM35.42,85.82c.07-3.08-2.41-.12,0,0Zm-23.05-15.99c-1.05-5.88-3.98-.89,0,0Zm5.5,1.38c.07-1.89-5.03-1.7,0,0Zm3.14,1.54c-.91-.74-.71.93,0,0Zm19.77,12.68c.93-.85-2.2-.63,0,0Zm-21.86-16.16c-.53-4.44-6.37-.67,0,0Zm-11.27-7.31c-.16-2.05-1.1.77,0,0Zm1.68-1.27c-.27-2.43-1.44.31,0,0Zm9.26,5.53c3.92-1.54-7.13-3.18-.8-.29l.8.29Zm123.96,76.57c2.51-2.3-3.19-.71,0,0Zm14.98,7.76c1-2.97-2.53.39,0,0ZM19.53,61.37c.41-2.87-3.11.57,0,0Zm-13.18-8.83c-.71-4.06-.61-11.18,6.16-8.77-9.04,1.79,6.26,11.23,4.32,3.78,3.8.19,7.43-2.25,5.44,1.44,7.49-.83,12.68-7.32,19.91-6.41,5.63-.75,11.79-1.31,17.87-3.58,4.99-.36,9.8-5.73,7.06-8.92-6.81-.58-13.93.28-21.46,1.77-8.34,1.73-15.91,5.03-24.32,6.44-8.2,1.1,1.65,3.03-.7,3.47-4.28,1.48,5.1,2.49-.55,4.05-3.49-.66-7.13-1.86-5.64-5.55-7.85,1.02-14.76,4.28-8.55,12.27h.46s0,0,0,0h0Zm18.93-9.64c1.84-6.78,9.87,5.58,3.02.9-.82-.61-2.16-1.11-3.02-.9Zm.36-3.29c2.66-1.98,1.41,1.11,0,0Zm3.38.05c.24-3.12,7.73,1.65,1.23,1.12l-1.23-1.12h0Zm4.62-1.86c1.69-1.97.48,1.75,0,0Zm1.18-.79c2.81-3.37,15.9-2.15,6.32-.33-2.57-1.93-4.54,1.14-6.32.33Zm17.08-2.63c-.43-9.21,8.49,3.27,0,0Zm4.85-.03c1.77-4.64,6.88-1.86.82-.93.13.49-.18,2.4-.82.93Zm-39.12,24.63c5.3-3.24-5.62-2.81,0,0h0Zm3.92,1.09c1.86-1.97-4.03-.8,0,0Zm-11.54-8.19c3.03-2.32-3.58-.88,0,0Zm156.36,97.82c.09-2.7-2.31,1.22,0,0Zm-15.89-10.84c.45-3.1-2.04.27,0,0Zm20.26,11.89c4.23.01,12.82-1.31,3.61-1.31-1.44.23-8.42.18-3.61,1.31h0ZM24.98,58.17c3.42-.24,5.36-3.78-.66-3.57-9.33-.97,8.23,3.19-1.2,2-1.27.84,1.79,1.8,1.86,1.57Zm3.02,1.53c-.36-2.2-1.06,1.17,0,0Zm3.58-9.54c1.49-1.84-2.06-.49,0,0Zm-11.39-19.03c6.11-2.08,14.47-4.41,17.35,1.02-2.94-3.53-1.18-7.01,1.59-1.85,3.92,5.23,5.88-2.38,3.33-4.13,2.91,3.61,6.21,5.32,1.95.23,4.64-5.58-9.28.73-12.45.67-1.52.68-15.72,3.62-11.77,4.06Zm3.58-6.86c3.48-2.63,12.05,1.56,6.55-2.61-.54-.47-12.04,3.17-6.55,2.61Zm12.7.52c4.08.1-1.76-5.48,3.1-2.95-.8-2.61-5.66-3.1-8.03-4.14-1.34,2.38,2.74,7.12,4.93,7.09Zm-10.48-11.53c1.41-1.91-2.47.97,0,0Zm5.19,1.24c6.57-.87-1.68-2.83-1.32-.07l1.32.07s0,0,0,0Zm-9.7-7.59c-4.63-6.04,8.7,1.02,4-5.31-3.96-3.15-7.76,3.55-4,5.31Zm59.39,31.99c2.12-3.76-8.76-5.07-1.43-1.33.68.23.52,1.59,1.43,1.33Z"/>
  </g>
</svg>