<?xml version="1.0" encoding="UTF-8"?>
<svg id="shields" xmlns="http://www.w3.org/2000/svg" viewBox="0 0 258.14 174.1">
  <defs>
    <style>
      .cls-1 {
        fill: #499848;
      }
    </style>
  </defs>
  <path class="cls-1" d="m109.11,173.33c-2.82-.91-2.82-1.31-.23-9.31,2.59-7.99,1.42-15.4-3.45-21.23-6.63-7.93-9.82-14.69-10.84-22.96-.88-7.1-1.15-7.66-4.04-8.23-1.94-.37-4.62.4-11.01,3.03-9.29,3.87-11.51,5.58-13.7,10.54-1.15,2.61-1.29,4.16-.64,7.18.8,3.68,4.07,9.6,5.3,9.6.32,0,2.11,1.23,3.96,2.71,3.08,2.48,3.3,2.9,2.42,4.92-1.9,4.38-6.4,9.7-8.22,9.7-1.02,0-5.19-2.92-9.78-6.85-9.01-7.72-9.39-8.49-10.33-21.14-1.11-15.09,2.6-22.14,19.13-36.3l10.37-8.89.66-5.39c.69-5.56-.28-18.8-1.9-26.1-.96-4.32-4.11-8.47-7.1-9.26-3.23-.9-5.17.97-7.66,7.47-2.68,7.03-5.24,9.48-9.89,9.48-2.9,0-5.65-1.86-7.47-5.12-1.34-2.34-2.12-16.42-1.31-23.82.38-3.56.4-7.17.05-8.02-.58-1.37-5.6-4.36-17.42-10.35-2.15-1.09-4.66-2.56-5.57-3.26s-3.28-2-5.27-2.87C10.69,6.89-1.03,0,.07,0c2.08,0,10.87,2.7,15.55,4.79,2.82,1.27,5.59,2.31,6.08,2.31s6,1.77,12.25,3.94c6.25,2.17,11.96,3.94,12.69,3.94,1.73,0,2.01-1.5,1.45-8.02-.25-2.96-.24-5.38.02-5.38s1.42.57,2.56,1.27c3.48,2.14,10.98,3.44,19.79,3.45,8.47,0,19.42,1.68,23.63,3.63,6.03,2.74,13.03,11.29,21.9,26.79,6.17,10.77,12.79,15.34,22.29,15.34,3.84,0,14.08-1.61,27.95-4.32,11.44-2.26,26.54-2.77,32.4-1.09,7.15,2.04,16.61,7.52,24.42,14.13,7.32,6.19,8.44,7.57,12.94,15.78,5.36,9.8,11.29,23.75,16.55,38.96.75,2.17,2.34,5.82,3.52,8.07,3.17,6.11,3.01,6.48-2.74,6.48-6.24,0-9.17-.98-13.26-4.46-3.92-3.33-4.95-5.37-11.09-22.06-3.15-8.55-6.21-13.68-8.17-13.68-1.34,0-4.06,9.16-4.06,13.69,0,3.21,2.02,7.56,7.26,15.57,8.46,13.02,12.92,31.46,11.13,45.98l-.81,6.31-5.64.23c-8.87.37-8.79.49-8.79-12.21,0-13.51-.92-16.44-6.89-21.89-2.48-2.26-8.03-8.7-12.35-14.29s-8.45-10.18-9.18-10.18c-1.69,0-2.53,4.6-2.62,14.33-.06,6.41-.31,7.49-2.2,9.46-5.12,5.35-8.71,15.09-10.89,29.62-.49,3.21-.91,3.82-3,4.29-3.07.69-11.56.81-12.29.16-.63-.55.48-9.29,2.98-23.56.95-5.36,1.72-10.75,2.31-16.16.56-6.17-.7-17.75-2.2-20.09-.62-.97-3.79-1.19-18.63-1.24-9.84-.04-20.62-.4-23.97-.72l-6.05-.65v2.7c0,2.89.74,5.45,5.7,19.6,1.95,5.6,3.83,11.24,5.62,16.89l2.45,7.82-2.07,6.36c-1.14,3.5-2.82,7.7-3.75,9.28-1.63,2.82-1.82,2.95-6.4,2.9-2.59-.04-5.87-.43-7.28-.88l-.09.12Z"/>
</svg>