<?xml version="1.0" encoding="UTF-8"?>
<svg id="shields" xmlns="http://www.w3.org/2000/svg" viewBox="0 0 222.51 198.01">
  <defs>
    <style>
      .cls-1 {
        fill: #00d8ff;
      }
    </style>
  </defs>
  <circle class="cls-1" cx="111.25" cy="99" r="19.96"/>
  <path class="cls-1" d="m111.25,53.64C49.81,53.64,0,73.95,0,99s49.81,45.36,111.25,45.36,111.25-20.31,111.25-45.36-49.81-45.36-111.25-45.36Zm75.17,68.87c-19.93,8.13-46.63,12.6-75.17,12.6s-55.24-4.48-75.17-12.6c-16.8-6.85-26.82-15.64-26.82-23.51s10.03-16.66,26.82-23.51c19.93-8.13,46.63-12.6,75.17-12.6s55.24,4.48,75.17,12.6c16.79,6.85,26.82,15.64,26.82,23.51s-10.03,16.66-26.82,23.51Z"/>
  <path class="cls-1" d="m71.97,76.32c-30.72,53.21-38.04,106.5-16.34,119.03,21.7,12.53,64.19-20.45,94.92-73.67,30.72-53.21,38.03-106.5,16.34-119.03-21.7-12.53-64.19,20.45-94.92,73.66Zm97.23-30.67c-2.93,21.32-12.4,46.68-26.67,71.4-14.27,24.72-31.5,45.61-48.5,58.8-14.33,11.12-26.95,15.41-33.77,11.48-6.82-3.94-9.41-17.01-6.95-34.98,2.93-21.32,12.4-46.68,26.67-71.4,14.27-24.72,31.5-45.6,48.5-58.8,14.33-11.12,26.95-15.41,33.77-11.48,6.82,3.93,9.41,17.01,6.95,34.98Z"/>
  <path class="cls-1" d="m55.63,2.66c-21.7,12.53-14.39,65.82,16.34,119.03,30.72,53.21,73.22,86.19,94.92,73.67,21.7-12.53,14.38-65.82-16.34-119.03C119.82,23.11,77.32-9.87,55.63,2.66Zm4.63,8.02c6.82-3.94,19.44.36,33.77,11.48,17,13.2,34.23,34.08,48.5,58.8,14.27,24.72,23.75,50.08,26.67,71.4,2.47,17.97-.13,31.05-6.95,34.98-6.82,3.93-19.44-.36-33.77-11.48-17-13.2-34.22-34.08-48.5-58.8-14.27-24.72-23.75-50.08-26.67-71.4-2.46-17.97.13-31.05,6.95-34.98Z"/>
</svg>