<?xml version="1.0" encoding="UTF-8"?>
<svg id="Layer_2" data-name="Layer 2" xmlns="http://www.w3.org/2000/svg" viewBox="0 0 38.57 36.15">
  <defs>
    <style>
      .cls-1 {
        fill: none;
      }

      .cls-2 {
        fill: #fff;
      }

      .cls-3 {
        fill: #4b53bc;
      }

      .cls-4 {
        fill: #5059c9;
      }

      .cls-5 {
        fill: #7b83eb;
      }

      .cls-6 {
        opacity: .1;
      }

      .cls-6, .cls-7, .cls-8, .cls-9, .cls-10 {
        isolation: isolate;
      }

      .cls-11 {
        opacity: .67;
      }

      .cls-7 {
        opacity: 0;
      }

      .cls-8 {
        opacity: .15;
      }

      .cls-9 {
        opacity: .3;
      }

      .cls-10 {
        opacity: .2;
      }
    </style>
  </defs>
  <g id="svg294">
    <g id="Teams_32x" data-name="Teams 32x">
      <path id="Path-89" class="cls-4" d="m36.77,13.22h-9.43c-1,0-.77.85-.77,1.85v9.17c0,3.31,2.69,6,6,6s6-2.69,6-6v-9.17c.02-1.01-.78-1.83-1.79-1.85,0,0,0,0-.01,0h-.05.05Z"/>
      <ellipse id="Head" class="cls-4" cx="32.55" cy="7.39" rx="4.02" ry="4.11"/>
      <path id="Body" class="cls-5" d="m12.26,13.22h15.67c1.01.01,1.82.84,1.81,1.85h0v11.22c.06,5.39-4.26,9.8-9.65,9.86-5.38-.06-9.7-4.47-9.64-9.85v-11.23c-.02-1.01.78-1.83,1.79-1.85,0,0,0,0,.01,0h0Z"/>
      <ellipse id="Head-2" class="cls-5" cx="20.09" cy="5.75" rx="5.63" ry="5.75"/>
      <ellipse id="Head-3" class="cls-1" cx="32.55" cy="7.39" rx="4.02" ry="4.11"/>
      <g id="dropshadow-5" class="cls-11">
        <path id="Path-90" class="cls-1" d="m12.26,13.22c-1.01,0-1.82.82-1.81,1.83,0,0,0,0,0,.01v11.22c0,.67.06,1.34.19,2h9.26c.67,0,1.21-.55,1.21-1.22v-13.84h-8.85Z"/>
        <path id="Path-91" class="cls-1" d="m14.87,7.87c.94,2.54,3.58,4.03,6.24,3.52v-2.3c0-.67-.54-1.21-1.21-1.22h-5.03Z"/>
        <path id="Path-92" class="cls-6" d="m12.26,13.22c-1.01,0-1.82.82-1.81,1.83,0,0,0,0,0,.01v11.22c0,1.6.37,3.17,1.11,4.59h6.11c.88.01,1.61-.7,1.62-1.58h0V13.22h-7.03Z"/>
        <path id="Path-93" class="cls-10" d="m12.26,13.22c-1.01,0-1.82.82-1.81,1.83,0,0,0,0,0,.01v11.22c0,1.17.21,2.33.61,3.43h6.61c.88.01,1.61-.7,1.62-1.58h0v-14.91h-7.03Z"/>
        <path id="Path-94" class="cls-10" d="m19.26,11.41c-.07-.82-.76-1.45-1.59-1.45h-1.38c.82.78,1.85,1.29,2.97,1.45Z"/>
        <path id="Path-95" class="cls-6" d="m12.26,13.22c-1.01,0-1.82.82-1.81,1.83,0,0,0,0,0,.01v11.22c0,.81.1,1.61.29,2.39h8.68c.67-.01,1.21-.57,1.2-1.24h0v-14.21h-8.36Z"/>
        <path id="Path-96" class="cls-6" d="m15.04,8.24c.9,1.96,2.85,3.22,5,3.25.18,0,.36,0,.53-.05v-1.95c0-.67-.53-1.22-1.2-1.23l-4.33-.02Z"/>
        <path id="Path-97" class="cls-6" d="m15.32,8.76c.99,1.69,2.81,2.73,4.77,2.73.17,0,.35,0,.52-.05v-1.42c0-.67-.53-1.22-1.2-1.23h-4.09v-.03Z"/>
        <path id="Path-98" class="cls-6" d="m12.26,13.22c-1.01,0-1.82.82-1.81,1.83,0,0,0,0,0,.01v11.22c0,.92.12,1.84.37,2.73l8.44.11c.73-.06,1.3-.64,1.35-1.37v-14.57l-8.35.04Z"/>
        <path id="Path-99" class="cls-7" d="m19.25,11.41v-2.88c0-.67-.54-1.22-1.21-1.23h-3.34c.57,2.15,2.35,3.76,4.55,4.11Z"/>
        <path id="Path-100" class="cls-7" d="m12.26,13.22c-1.01,0-1.82.82-1.81,1.83,0,0,0,0,0,.01v11.16l6.35-.86c.67,0,2.45-.59,2.45-1.27v-10.87h-6.99Z"/>
        <path id="Path-101" class="cls-10" d="m12.26,13.22c-1.01,0-1.82.82-1.81,1.83,0,0,0,0,0,.01v11.22c0,1.38.29,2.74.85,4h6.4c.88,0,1.6-.71,1.61-1.59h0v-15.47h-7.05Z"/>
        <path id="Path-102" class="cls-10" d="m19.11,11.39c-.28-.53-.84-.86-1.44-.86h-.73c.65.44,1.39.74,2.17.86Z"/>
        <path id="Path-103" class="cls-9" d="m12.26,13.22c-1.01,0-1.82.82-1.81,1.83,0,0,0,0,0,.01v11.22c0,.62.05,1.24.17,1.85h7.06c.88,0,1.6-.71,1.61-1.59v-13.32h-7.03Z"/>
        <path id="Path-104" class="cls-9" d="m19.29,11.42v-1.07c-.01-.88-.73-1.59-1.61-1.58h-2.35c.87,1.44,2.34,2.41,4,2.65h-.04Z"/>
        <path id="Path-105" class="cls-9" d="m12.26,13.22c-1.01,0-1.82.82-1.81,1.83,0,0,0,0,0,.01v11.22c0,.58.06,1.17.16,1.74h7.07c.89,0,1.61-.7,1.62-1.59v-13.21h-7.04Z"/>
        <path id="Path-106" class="cls-9" d="m19.29,11.42v-1.07c-.01-.88-.74-1.59-1.62-1.58h-2.34c.86,1.43,2.31,2.4,3.96,2.65h0Z"/>
        <path id="Path-107" class="cls-9" d="m12.26,13.22c-1.01,0-1.82.82-1.81,1.83,0,0,0,0,0,.01v11.22c0,.9.12,1.79.36,2.66h6.86c.88,0,1.6-.71,1.61-1.59v-14.13h-7.02Z"/>
        <path id="Path-108" class="cls-9" d="m19.29,11.42v-.66c-.01-.89-.73-1.6-1.62-1.6h-2.06c.88,1.21,2.2,2.03,3.68,2.26h0Z"/>
        <path id="Path-109" class="cls-10" d="m12.26,13.22c-1.01,0-1.82.82-1.81,1.83,0,0,0,0,0,.01v11.22c0,1.02.15,2.03.47,3h6.75c.88.01,1.61-.7,1.62-1.58,0,0,0,0,0-.01v-14.47h-7.03Z"/>
        <path id="Path-110" class="cls-10" d="m19.29,11.42v-.3c-.01-.88-.73-1.59-1.61-1.58h-1.79c.87,1.01,2.08,1.68,3.4,1.88Z"/>
        <path id="Path-111" class="cls-6" d="m20.09,11.49h.31v-.91c0-.67-.53-1.22-1.2-1.23h-3.48c1.04,1.36,2.66,2.16,4.37,2.17v-.03Z"/>
        <path id="Path-112" class="cls-6" d="m20.4,13.22h-8.14c-1.01,0-1.82.82-1.81,1.83,0,0,0,0,0,.01v11.22c0,.77.09,1.54.27,2.29h8.48c.67,0,1.21-.54,1.21-1.21h0s-.01-14.14-.01-14.14Z"/>
        <path id="Path-113" class="cls-10" d="m12.26,13.22c-1.01,0-1.82.82-1.81,1.83,0,0,0,0,0,.01v11.22c0,.63.06,1.26.18,1.88h7.64c.67,0,1.21-.55,1.21-1.22v-13.72h-7.22Z"/>
        <path id="Path-114" class="cls-10" d="m19.48,11.43v-.85c0-.68-.53-1.23-1.21-1.24h-2.58c.93,1.18,2.3,1.93,3.79,2.09h0Z"/>
        <path id="Path-115" class="cls-9" d="m19.61,11.45v-1.43c0-.72-1.63-1.13-1.81-1.34-.53-.29-1.12-.44-1.72-.43h-1.1c.86,1.82,2.62,3.04,4.63,3.2h0Z"/>
        <path id="Path-116" class="cls-9" d="m12.26,13.22c-1.01,0-1.82.82-1.81,1.83,0,0,0,0,0,.01v11.22c0,.41.02.82.07,1.22h7.93c.67,0,1.21-.55,1.2-1.22h0v-13.06h-7.39Z"/>
        <path id="Path-117" class="cls-6" d="m20,11.48c0-.66-.53-1.21-1.19-1.22h-2.2c.96.8,2.18,1.25,3.43,1.27l-.04-.05Z"/>
        <path id="Path-118" class="cls-6" d="m12.26,13.22c-1.01,0-1.82.82-1.81,1.83,0,0,0,0,0,.01v11.22c0,1.08.17,2.16.52,3.18h7.83c.67,0,1.21-.55,1.2-1.22h0v-15l-7.74-.02Z"/>
        <path id="Path-119" class="cls-6" d="m12.26,13.22c-1.01,0-1.82.82-1.81,1.83,0,0,0,0,0,.01v11.46l6.34-.86c.67,0,2.45-.59,2.45-1.27v-11.14l-6.98-.03Z"/>
        <path id="Path-120" class="cls-6" d="m19.25,11.41v-2.52c.01-.67-.53-1.23-1.2-1.24h-3.25c.67,1.98,2.39,3.43,4.45,3.76h0Z"/>
        <path id="Path-121" class="cls-8" d="m19.25,11.41v-2.22c0-.67-.53-1.22-1.2-1.23h-3.15c.75,1.83,2.4,3.14,4.35,3.45h0Z"/>
        <path id="Path-122" class="cls-8" d="m12.26,13.22c-1.01,0-1.82.82-1.81,1.83,0,0,0,0,0,.01v11.76l6.32-.85c.67,0,2.46-.6,2.46-1.27v-11.48h-6.97Z"/>
      </g>
      <path id="Back_Plate-5" data-name="Back Plate-5" class="cls-3" d="m1.61,8.21h16.08c.9.01,1.62.74,1.61,1.64v16.44c0,.9-.71,1.63-1.61,1.64H1.61C.72,27.92,0,27.19,0,26.3c0,0,0,0,0-.01V9.85c0-.9.71-1.63,1.61-1.64Z"/>
      <path id="Path-123" class="cls-2" d="m14.43,14.34h-3.6v9.89h-2.37v-9.89h-3.61v-2.43h9.58v2.43Z"/>
    </g>
  </g>
</svg>