<?xml version="1.0" encoding="UTF-8"?>
<svg id="shields" xmlns="http://www.w3.org/2000/svg" viewBox="0 0 201.45 202.37">
  <defs>
    <style>
      .cls-1 {
        fill: #7dbc42;
      }

      .cls-2 {
        fill: #151f34;
      }

      .cls-3 {
        fill: #348540;
      }
    </style>
  </defs>
  <path class="cls-2" d="m122.93,58.05c-7.3,1.78-14.78,2.49-22.25,2.49s-15.13-.89-22.25-2.49c5.87-9.44,13.53-17.8,22.25-24.74,8.73,6.94,16.38,15.3,22.25,24.74ZM190.04,3.58C180.78,1.09,171.38-.16,161.91.02c-21.72,0-43.08,6.41-61.23,18.51C82.52,6.43,61.34-.15,39.44.02,29.65.02,20.22,1.27,11.32,3.58c-3.74.89-7.47,2.14-11.07,3.56-.18.18-.36.36-.18.54,1.6,3.38,3.38,6.77,5.16,9.97.18.18.36.18.54.18,10.79-3.89,22.17-5.88,33.64-5.87,18.01-.04,35.69,4.89,51.09,14.24-9.44,8.01-17.62,17.62-23.85,28.3-3.38,5.52-6.05,11.39-8.37,17.44-4.63,12.28-6.94,25.46-6.94,38.45,0,31.33,13.17,59.63,34.15,79.74,1.64,1.63,3.36,3.18,5.16,4.63,1.42,1.25,2.85,2.31,4.27,3.38,1.78,1.42,3.74,2.85,5.69,4.09.18.18.36.18.54,0,1.96-1.25,3.74-2.67,5.69-4.09,1.42-1.07,2.85-2.14,4.27-3.38,1.8-1.45,3.53-2.99,5.16-4.63,21-20.11,34-48.42,34-79.74,0-15.66-3.38-31.15-9.79-45.39l-2.14-4.45c-1.07-2.14-2.31-4.27-3.56-6.23-6.41-10.68-14.42-20.29-23.85-28.3,15.49-9.26,33.11-14.24,51.09-14.24,11.39,0,22.96,1.96,33.64,5.87.18,0,.36,0,.54-.18,1.96-3.2,3.56-6.59,5.16-9.79.18-.18,0-.54-.18-.54-3.74-1.42-7.47-2.67-11.22-3.56h.06Z"/>
  <path class="cls-3" d="m138.06,110.56c0,26.17-10.12,50.02-26.88,67.64-3.03-9.61-4.45-19.58-4.45-29.55,0-26.17,10.12-50.02,26.88-67.64,2.95,9.57,4.44,19.53,4.45,29.55"/>
  <path class="cls-1" d="m94.8,148.48c0,10.02-1.5,19.98-4.45,29.55-17.26-18.34-26.88-42.54-26.88-67.64,0-10.32,1.6-20.29,4.63-29.55,17.13,18.36,26.67,42.53,26.7,67.64"/>
</svg>