<?xml version="1.0" encoding="UTF-8"?>
<svg id="shields" xmlns="http://www.w3.org/2000/svg" viewBox="0 0 237.07 234.6">
  <defs>
    <style>
      .cls-1 {
        fill-rule: evenodd;
      }
    </style>
  </defs>
  <path d="m157.59,93.42h41.29v7.62h-16.38v40.1h-8.19v-40.1h-16.72v-7.62Z"/>
  <path d="m89.68,93.42v7.62h-33.1v12.26h26.62v7.62h-26.62v12.59h33.1v7.62h-41.29v-40.1h0v-7.62h41.29Z"/>
  <path d="m110.3,93.44h-10.72l38.39,47.72h10.75l-19.2-23.84,19.17-23.84-10.72.02-13.81,17.16-13.86-17.21Z"/>
  <path d="m121.3,127.53l-5.37-6.67-16.38,20.34h10.75l11-13.67Z"/>
  <path class="cls-1" d="m48.68,141.14L10.24,93.4H0v47.72h8.19v-37.52l30.2,37.54h10.29Z"/>
  <path d="m200.73,140.85c-.6,0-1.11-.21-1.54-.62-.43-.42-.64-.92-.63-1.51,0-.58.21-1.08.63-1.49s.94-.62,1.54-.62,1.08.21,1.51.62c.43.42.65.91.66,1.49,0,.39-.11.75-.31,1.08-.21.33-.47.59-.79.77-.32.19-.68.29-1.07.29Z"/>
  <path d="m214.71,120.75h3.63v13.98c0,1.29-.28,2.38-.83,3.31-.55.92-1.31,1.63-2.29,2.13-.97.49-2.11.74-3.4.74-1.18,0-2.24-.21-3.19-.63-.94-.42-1.69-1.04-2.24-1.86-.56-.82-.83-1.84-.83-3.07h3.64c0,.54.13,1,.36,1.39s.55.68.97.89c.42.21.89.31,1.43.31.58,0,1.08-.12,1.49-.37.4-.24.72-.6.93-1.08.21-.48.32-1.07.33-1.77v-13.98Z"/>
  <path d="m233.27,126.22c-.09-.85-.48-1.51-1.15-1.98-.68-.48-1.57-.71-2.65-.71-.76,0-1.41.11-1.96.34-.54.23-.97.54-1.25.92-.29.39-.43.83-.44,1.33,0,.42.1.78.29,1.08.19.31.45.56.79.77.33.21.7.39,1.11.53.41.14.82.26,1.23.36l1.89.46c.76.17,1.5.41,2.2.71.7.3,1.34.67,1.9,1.13.56.45,1,1,1.33,1.64.33.64.49,1.39.49,2.25,0,1.16-.3,2.19-.9,3.07-.6.88-1.48,1.57-2.62,2.07-1.14.49-2.51.74-4.13.74s-2.93-.24-4.08-.72c-1.15-.48-2.05-1.18-2.7-2.09-.65-.92-1-2.04-1.05-3.36h3.6c.05.69.27,1.26.65,1.73.38.46.88.8,1.49,1.03.62.22,1.3.34,2.06.34s1.49-.12,2.1-.36c.6-.24,1.07-.56,1.41-.99.34-.42.52-.92.52-1.49,0-.52-.16-.95-.46-1.29-.31-.34-.73-.62-1.27-.85-.54-.23-1.18-.44-1.9-.62l-2.3-.58c-1.66-.42-2.97-1.06-3.94-1.92-.97-.86-1.44-2-1.44-3.42,0-1.17.32-2.2.97-3.08.64-.88,1.53-1.56,2.64-2.05,1.12-.49,2.39-.73,3.8-.73s2.69.24,3.77.73c1.08.49,1.93,1.16,2.55,2.03.62.86.94,1.85.95,2.97h-3.52Z"/>
</svg>