<?xml version="1.0" encoding="UTF-8"?>
<svg xmlns="http://www.w3.org/2000/svg" xmlns:xlink="http://www.w3.org/1999/xlink" viewBox="0 0 234.09 265.48">
  <defs>
    <style>
      .cls-1 {
        fill: #ebebeb;
      }

      .cls-2 {
        fill: #fff;
      }

      .cls-3 {
        fill: #0b74b8;
      }

      .cls-4 {
        fill: #2eaade;
      }

      .cls-5 {
        fill: url(#linear-gradient);
        opacity: .2;
      }

      .cls-5, .cls-6 {
        mix-blend-mode: multiply;
      }

      .cls-6 {
        fill: url(#linear-gradient-2);
        opacity: .3;
      }

      .cls-7 {
        isolation: isolate;
      }
    </style>
    <linearGradient id="linear-gradient" x1="113.17" y1="96.06" x2="59.33" y2="122.07" gradientUnits="userSpaceOnUse">
      <stop offset="0" stop-color="#fff"/>
      <stop offset="1" stop-color="#000"/>
    </linearGradient>
    <linearGradient id="linear-gradient-2" x1="117.03" y1="79.29" x2="190.44" y2="79.29" xlink:href="#linear-gradient"/>
  </defs>
  <g class="cls-7">
    <g id="shields">
      <g>
        <g>
          <polygon class="cls-3" points="116.9 265.48 21.3 238.94 0 0 234.09 0 212.76 238.91 116.9 265.48"/>
          <polygon class="cls-4" points="194.5 223.69 212.73 19.54 117.04 19.54 117.04 245.17 194.5 223.69"/>
        </g>
        <g>
          <polygon class="cls-1" points="51.55 137.85 187.82 78.54 190.44 49.23 48.94 108.55 51.55 137.85"/>
          <polygon class="cls-5" points="51.55 137.85 187.82 78.54 190.44 49.23 48.94 108.55 51.55 137.85"/>
          <polygon class="cls-1" points="117.03 49.23 43.65 49.23 44.35 57.09 46.26 78.54 117.13 78.54 117.13 49.23 117.03 49.23"/>
          <polygon class="cls-2" points="185.15 108.55 117.03 108.55 117.03 137.85 153.12 137.85 149.71 175.86 117.03 184.68 117.03 215.17 177.1 198.52 185.15 108.55"/>
          <polygon class="cls-2" points="117.03 80 117.03 109.35 187.82 78.54 190.44 49.23 117.03 80"/>
          <polygon class="cls-6" points="117.03 80 117.03 109.35 187.82 78.54 190.44 49.23 117.03 80"/>
          <polygon class="cls-1" points="48.94 108.55 51.55 137.85 117.13 137.85 117.13 108.55 48.94 108.55"/>
          <polygon class="cls-2" points="190.44 49.23 117.03 49.23 117.03 78.47 117.03 78.54 187.72 78.54 187.72 78.54 187.82 78.54 190.44 49.23"/>
          <polygon class="cls-1" points="117.04 184.69 117.03 184.69 84.39 175.88 82.31 152.5 66.45 152.5 52.89 152.5 57 198.52 117.02 215.19 117.04 215.18 117.04 184.69"/>
        </g>
      </g>
    </g>
  </g>
</svg>