<?xml version="1.0" encoding="UTF-8"?>
<svg id="shields" xmlns="http://www.w3.org/2000/svg" viewBox="0 0 216.06 240.74">
  <defs>
    <style>
      .cls-1 {
        fill: #fff;
      }

      .cls-2 {
        fill: #430098;
      }
    </style>
  </defs>
  <rect class="cls-1" x="12.04" y="12.04" width="191.99" height="216.66" rx="9.63" ry="9.63"/>
  <g id="Page-1">
    <g id="main">
      <g id="nav">
        <path id="logo" class="cls-2" d="m194.39,0H21.67C9.63,0,0,9.63,0,21.67v197.4c0,12.04,9.63,21.67,21.67,21.67h172.73c12.04,0,21.67-9.63,21.67-21.67V21.67c0-12.04-9.63-21.67-21.67-21.67Zm9.63,219.07c0,5.42-4.21,9.63-9.63,9.63H21.67c-5.42,0-9.63-4.21-9.63-9.63V21.67c0-5.42,4.21-9.63,9.63-9.63h172.73c5.42,0,9.63,4.21,9.63,9.63v197.4Zm-149.86-14.44l27.08-24.07-27.08-24.07v48.15Zm97.5-97.5c-4.81-4.81-13.84-10.83-28.89-10.83-16.25,0-33.1,4.21-45.14,8.43V36.11h-24.07v104.12l16.85-7.82s27.68-12.64,51.76-12.64c12.04,0,15.05,6.62,15.05,12.64v72.22h24.07v-72.22c.6-1.81.6-15.05-9.63-25.28Zm-31.9-31.9h24.07c10.83-12.64,16.25-25.28,18.06-39.12h-24.07c-2.41,13.84-8.43,26.48-18.06,39.12Z"/>
      </g>
    </g>
  </g>
</svg>