<?xml version="1.0" encoding="UTF-8"?>
<svg id="shields" xmlns="http://www.w3.org/2000/svg" viewBox="0 0 201.14 226.75">
  <defs>
    <style>
      .cls-1 {
        fill: #689f63;
      }
    </style>
  </defs>
  <path class="cls-1" d="m100.61,226.75c-3.04,0-6.05-.8-8.71-2.33l-27.74-16.42c-4.14-2.32-2.12-3.14-.75-3.61,5.52-1.93,6.65-2.37,12.54-5.72.62-.35,1.43-.23,2.07.15l21.31,12.65c.77.42,1.86.42,2.57,0l83.09-47.96c.77-.44,1.27-1.33,1.27-2.25v-95.88c0-.96-.5-1.81-1.29-2.29L101.91,15.17c-.77-.46-1.79-.46-2.56,0L16.31,63.09c-.8.46-1.32,1.35-1.32,2.27v95.88c0,.92.5,1.79,1.29,2.23l22.75,13.14c12.35,6.18,19.9-1.1,19.9-8.42v-94.63c0-1.35,1.06-2.39,2.41-2.39h10.52c1.31,0,2.39,1.04,2.39,2.39v94.67c0,16.47-8.98,25.94-24.6,25.94-4.8,0-8.59,0-19.16-5.2l-21.8-12.56c-5.39-3.12-8.71-8.94-8.71-15.16v-95.88c0-6.24,3.33-12.06,8.71-15.14L91.89,2.23c5.26-2.97,12.25-2.97,17.47,0l83.07,48c5.37,3.1,8.71,8.9,8.71,15.14v95.88c0,6.22-3.35,12.02-8.71,15.14l-83.07,47.98c-2.66,1.54-5.68,2.33-8.76,2.33"/>
  <path class="cls-1" d="m126.27,160.68c-36.36,0-43.98-16.69-43.98-30.69,0-1.33,1.07-2.39,2.41-2.39h10.73c1.19,0,2.18.86,2.37,2.03,1.62,10.94,6.45,16.45,28.43,16.45,17.51,0,24.96-3.96,24.96-13.24,0-5.35-2.12-9.32-29.33-11.98-22.75-2.25-36.81-7.26-36.81-25.46,0-16.76,14.14-26.75,37.83-26.75,26.6,0,39.79,9.23,41.45,29.08.06.69-.19,1.35-.64,1.85-.46.48-1.1.77-1.77.77h-10.79c-1.12,0-2.1-.79-2.33-1.87-2.6-11.5-8.88-15.18-25.96-15.18-19.11,0-21.34,6.66-21.34,11.65,0,6.05,2.62,7.82,28.41,11.23,25.54,3.39,37.67,8.17,37.67,26.12s-15.1,28.47-41.43,28.47"/>
</svg>