<?xml version="1.0" encoding="UTF-8"?>
<svg id="Layer_2" data-name="Layer 2" xmlns="http://www.w3.org/2000/svg" viewBox="0 0 39.44 34.5">
  <defs>
    <style>
      .cls-1 {
        fill: #f9f7f7;
      }

      .cls-2 {
        fill: #ed6c47;
      }

      .cls-3 {
        fill: #ff8f6b;
      }

      .cls-4 {
        fill: #c43e1c;
      }

      .cls-5 {
        fill: #d35230;
      }

      .cls-6 {
        opacity: .1;
      }

      .cls-6, .cls-7, .cls-8, .cls-9, .cls-10, .cls-11 {
        isolation: isolate;
      }

      .cls-7 {
        opacity: .05;
      }

      .cls-12 {
        opacity: .67;
      }

      .cls-8 {
        opacity: 0;
      }

      .cls-9 {
        opacity: .15;
      }

      .cls-10 {
        opacity: .3;
      }

      .cls-11 {
        opacity: .2;
      }
    </style>
  </defs>
  <g id="svg294">
    <g id="Powerpoint_32x" data-name="Powerpoint 32x">
      <path id="Circle" class="cls-5" d="m22.18,0c9.52-.01,17.25,7.7,17.26,17.22v.02c0,9.53-7.71,17.25-17.24,17.26h-.01c-9.53,0-17.25-7.72-17.25-17.25h0C4.95,7.72,12.66,0,22.18,0Z"/>
      <path id="Path-145" class="cls-2" d="m22.18,0C12.66.02,4.95,7.73,4.93,17.25h17.25V0Z"/>
      <path id="Path-146" class="cls-3" d="m22.18,0c9.52.02,17.24,7.73,17.26,17.25h-17.26V0Z"/>
      <g id="dropshadow-7" class="cls-12">
        <path id="Path-147" class="cls-7" d="m8.27,27.47h11.94c.7.05,1.31-.48,1.36-1.18,0-.02,0-.04,0-.05V8.24c-.02-.7-.61-1.25-1.31-1.23,0,0,0,0,0,0h-12c-1.5,2.01-2.54,4.33-3.05,6.79v6.86c.5,2.48,1.55,4.83,3.06,6.86v-.05Z"/>
        <path id="Path-148" class="cls-6" d="m10.68,30.06h7.18c1,0,1.72-2.07,1.72-3v-15.19c-.07-.9-.82-1.59-1.72-1.59H6.42c-3.03,6.82-1.3,14.83,4.29,19.78h-.03Z"/>
        <path id="Path-149" class="cls-11" d="m9.57,28.92h8.34c.88-.02,1.59-.71,1.66-1.58V10.73c-.07-.9-.82-1.59-1.72-1.59H6.97c-3.46,6.47-2.41,14.42,2.6,19.78Z"/>
        <path id="Path-150" class="cls-6" d="m8.62,27.86h11.14c.7.02,1.29-.53,1.32-1.23V8.63c-.02-.71-.6-1.27-1.31-1.26h-11.74c-4.37,6.21-4.13,14.55.59,20.49h0Z"/>
        <path id="Path-151" class="cls-6" d="m8.57,28.18h10.88c.73,0,1.31-1.61,1.31-2.3V9.17c-.02-.7-.61-1.25-1.31-1.23,0,0,0,0,0,0H7.45c-4.08,6.27-3.62,14.46,1.12,20.24Z"/>
        <path id="Path-152" class="cls-8" d="m7.03,25.48l9.88-1c.72,0,2.66-.59,2.66-1.27V7.72c-.02-.7-.61-1.26-1.31-1.24h-9.52c-4.37,5.4-5.05,12.9-1.72,19h0Z"/>
        <path id="Path-153" class="cls-11" d="m10.03,29.47h7.83c.89,0,1.64-.69,1.71-1.58V11.25c-.07-.9-.82-1.59-1.72-1.59H6.71c-3.28,6.62-1.94,14.6,3.32,19.79v.02Z"/>
        <path id="Path-154" class="cls-10" d="m8.21,27.32h9.65c.9,0,1.64-.7,1.71-1.59V9.53c-.07-.89-.82-1.58-1.72-1.58H7.72c-3.87,5.94-3.66,13.65.52,19.37h-.03Z"/>
        <path id="Path-155" class="cls-10" d="m8.14,27.23h9.72c.9,0,1.65-.7,1.72-1.6V9.53c-.07-.89-.82-1.58-1.72-1.58H7.72c-3.85,5.9-3.67,13.56.44,19.28h-.02Z"/>
        <path id="Path-156" class="cls-10" d="m8.82,28.13h9c.91.02,1.68-.68,1.75-1.59V9.94c-.07-.9-.82-1.6-1.72-1.6H7.44c-3.79,6.22-3.24,14.16,1.38,19.79Z"/>
        <path id="Path-157" class="cls-11" d="m9.15,28.5h8.71c.9,0,1.64-.69,1.71-1.58V10.31c-.07-.9-.82-1.59-1.72-1.59H7.22c-3.66,6.33-2.88,14.28,1.93,19.78h0Z"/>
        <path id="Path-158" class="cls-6" d="m8.29,27.8h11c.73,0,1.31-1.2,1.31-1.88V9.8c-.02-.7-.61-1.25-1.31-1.23,0,0,0,0,0,0H7.1c-3.62,6.04-3.15,13.69,1.19,19.23Z"/>
        <path id="Path-159" class="cls-11" d="m8.24,27.35h10.33c.7.03,1.28-.51,1.31-1.21,0,0,0,0,0-.01V9.74c-.02-.7-.61-1.25-1.31-1.23,0,0,0,0,0,0H7.38c-3.54,5.88-3.2,13.31.86,18.84h0Z"/>
        <path id="Path-160" class="cls-10" d="m7.78,26.69h10.91c.7.02,1.29-.53,1.31-1.23,0,0,0,0,0,0V9.17c0-.73-1.77-1.14-2-1.35-.57-.28-1.19-.43-1.82-.43H7.99c-4.03,5.78-4.11,13.43-.21,19.3Z"/>
        <path id="Path-161" class="cls-6" d="m9.28,28.65h9.8c.7.02,1.28-.54,1.3-1.24,0,0,0,0,0,0V10.62c-.02-.69-.6-1.24-1.29-1.22H6.86c-3.27,6.3-2.31,13.96,2.42,19.25h0Z"/>
        <path id="Path-162" class="cls-6" d="m7.23,25.8l9.68-1c.72,0,2.66-.59,2.66-1.27v-15.46c0-.71-.58-1.28-1.29-1.27,0,0-.01,0-.02,0h-9.78c-4.24,5.49-4.73,13-1.25,19Z"/>
        <path id="Path-163" class="cls-9" d="m7.41,26.09l9.5-1c.72,0,2.66-.59,2.66-1.27v-14c0-.69-1.23-2.72-2.58-2.72h-8.74c-4.13,5.57-4.47,13.08-.86,19h.02Z"/>
      </g>
      <path id="Back_Plate-7" data-name="Back Plate-7" class="cls-4" d="m1.64,7.39h16.43c.91,0,1.65.74,1.65,1.65v16.43c0,.91-.73,1.64-1.64,1.64,0,0,0,0-.01,0H1.64C.74,27.12,0,26.39,0,25.49c0,0,0-.01,0-.02V9.04c0-.91.72-1.64,1.63-1.65,0,0,0,0,.01,0Z"/>
      <path id="Shape-5" class="cls-1" d="m9.9,11.09c1.23-.09,2.44.27,3.43,1,.81.73,1.24,1.78,1.18,2.87.02.71-.19,1.41-.59,2-.4.63-.97,1.14-1.65,1.46-.78.36-1.63.54-2.49.52h-2.36v4.46h-2.41v-12.31h4.89Zm-2.51,5.77h2.08c.66.04,1.31-.15,1.84-.55.42-.28.66-.76.62-1.26,0-1.37-.79-2-2.38-2h-2.16v3.81Z"/>
    </g>
  </g>
</svg>