<?xml version="1.0" encoding="UTF-8"?>
<svg id="shields" xmlns="http://www.w3.org/2000/svg" viewBox="0 0 234.09 265.48">
  <defs>
    <style>
      .cls-1 {
        fill: #ebebeb;
      }

      .cls-2 {
        fill: #fff;
      }

      .cls-3 {
        fill: #f16529;
      }

      .cls-4 {
        fill: #e44d26;
      }
    </style>
  </defs>
  <g>
    <polygon class="cls-4" points="116.9 265.48 21.3 238.95 0 0 234.09 0 212.76 238.91 116.9 265.48"/>
    <polygon class="cls-3" points="194.5 223.69 212.73 19.54 117.04 19.54 117.04 245.17 194.5 223.69"/>
  </g>
  <polygon class="cls-2" points="117.13 78.15 187.82 78.15 190.44 48.84 117.13 48.84 117.03 48.84 43.65 48.84 51.55 137.46 117.03 137.46 117.13 137.46 153.12 137.46 149.71 175.47 117.03 184.29 117.03 184.3 117 184.3 84.37 175.49 82.28 152.12 52.86 152.12 56.97 198.13 117 214.8 117.13 214.76 117.13 214.75 177.11 198.13 185.15 108.16 117.13 108.16 117.03 108.16 78.35 108.16 75.68 78.15 117.03 78.15 117.13 78.15"/>
  <g>
    <polygon class="cls-1" points="117.04 184.29 117.03 184.29 117.03 184.3 117 184.3 84.37 175.49 82.28 152.12 52.86 152.12 56.97 198.13 117 214.8 117.04 214.78 117.04 184.29"/>
    <polygon class="cls-1" points="117.04 137.46 117.04 108.16 117.03 108.16 78.35 108.16 75.68 78.15 117.03 78.15 117.04 78.15 117.04 48.84 117.03 48.84 43.65 48.84 51.55 137.46 117.03 137.46 117.04 137.46"/>
  </g>
</svg>