<?xml version="1.0" encoding="UTF-8"?>
<svg id="shields" xmlns="http://www.w3.org/2000/svg" viewBox="0 0 234.09 265.48">
  <defs>
    <style>
      .cls-1 {
        fill: #fff;
      }

      .cls-2 {
        fill: #ffd83a;
      }

      .cls-3 {
        fill: #dab92d;
      }
    </style>
  </defs>
  <g>
    <polygon class="cls-3" points="116.9 265.48 21.3 238.95 0 0 234.09 0 212.76 238.91 116.9 265.48"/>
    <polygon class="cls-2" points="194.5 223.69 212.73 19.54 117.04 19.54 117.04 245.17 194.5 223.69"/>
  </g>
  <polygon class="cls-1" points="122.32 48.84 122.32 137.46 151.63 137.46 151.97 137.46 148.56 175.47 122.32 182.55 122.32 212.99 175.96 198.13 184 108.16 151.63 108.16 151.63 78.15 186.57 78.15 186.67 78.15 189.29 48.84 122.32 48.84"/>
  <polygon class="cls-1" points="82.09 48.84 86.51 177.14 77.5 175 75.58 152.12 51.71 152.12 55.82 198.13 109.47 213.02 109.47 48.84 82.09 48.84"/>
</svg>