<?xml version="1.0" encoding="UTF-8"?>
<svg id="linkedIN" xmlns="http://www.w3.org/2000/svg" viewBox="0 0 98 96">
 <style>
        path {
            fill: black;
        }
        @media (prefers-color-scheme: dark) {
            path { fill: white; }
        }
    </style>
  <path d="m54.2,40.51c3.13-4.92,7.14-8.14,12.4-9.51,6.41-1.67,12.75-1.13,18.78,1.57,6.08,2.73,8.93,8,10.38,14.18,1.05,4.48,1.3,9.05,1.29,13.64-.03,11.35-.03,22.69,0,34.04,0,1.21-.36,1.58-1.55,1.56-5.67-.05-11.35-.06-17.02,0-1.31.01-1.61-.48-1.61-1.69.04-10.51.07-21.02-.02-31.53-.02-2.64-.26-5.34-.84-7.91-1.04-4.57-4.04-6.83-8.7-6.88-1.48-.02-3.02.05-4.45.41-4.63,1.16-6.6,4.67-7.36,8.99-.37,2.12-.51,4.3-.52,6.46-.05,10.18-.05,20.36,0,30.53,0,1.28-.38,1.64-1.63,1.63-5.67-.05-11.35-.05-17.02,0-1.16,0-1.6-.3-1.6-1.54.03-20.4.03-40.79,0-61.19,0-1.13.31-1.51,1.48-1.5,5.51.06,11.02.06,16.52,0,1.21-.01,1.49.42,1.46,1.52-.06,2.28-.02,4.57-.02,7.23Zm-31.53-7.25c0-1.13-.31-1.51-1.48-1.49-5.76.06-11.51.05-17.27,0-1.13,0-1.49.29-1.49,1.46.03,20.43.04,40.87,0,61.3,0,1.21.44,1.47,1.52,1.47,5.67-.03,11.35-.01,17.02-.02,1.67,0,1.68-.01,1.68-1.67,0-10.17,0-20.35,0-30.52,0-10.17-.02-20.35.02-30.52Zm1.5-21.58C24.18,5.19,19,0,12.54,0,6.06,0,.94,5.16.95,11.69c0,6.42,5.15,11.53,11.61,11.53,6.45,0,11.61-5.13,11.61-11.54Z"/>
</svg>