<?xml version="1.0" encoding="UTF-8"?>
<svg id="Layer_2" data-name="Layer 2" xmlns="http://www.w3.org/2000/svg" viewBox="0 0 38.6 35.34">
  <defs>
    <style>
      .cls-1 {
        fill: #fff;
      }

      .cls-2 {
        fill: #21a366;
      }

      .cls-3 {
        fill: #107c41;
      }

      .cls-4 {
        fill: #185c37;
      }

      .cls-5 {
        fill: #33c481;
      }

      .cls-6 {
        opacity: .1;
      }

      .cls-6, .cls-7, .cls-8, .cls-9, .cls-10, .cls-11 {
        isolation: isolate;
      }

      .cls-7 {
        opacity: .05;
      }

      .cls-12 {
        opacity: .67;
      }

      .cls-8 {
        opacity: 0;
      }

      .cls-9 {
        opacity: .15;
      }

      .cls-10 {
        opacity: .3;
      }

      .cls-11 {
        opacity: .2;
      }
    </style>
  </defs>
  <g id="svg294">
    <g id="Excel_32x" data-name="Excel 32x">
      <path id="Path-47" class="cls-2" d="m11.25,0h25.73c.43,0,.84.18,1.14.49.3.32.47.75.47,1.19v31.9c0,.44-.17.87-.47,1.19-.3.31-.71.49-1.14.49H11.25c-.9-.02-1.62-.76-1.6-1.66,0,0,0,0,0-.01V1.68C9.63.78,10.34.03,11.24,0h.01Z"/>
      <path id="Path-48" class="cls-4" d="m9.65,17.63v16c-.04.9.65,1.66,1.55,1.71,0,0,0,0,.01,0h25.77c.91-.02,1.63-.76,1.61-1.67,0,0,0,0,0-.01v-16l-28.94-.03Z"/>
      <path id="Rectangle-12" class="cls-3" d="m9.65,8.82h28.94v8.82H9.65v-8.82Z"/>
      <path id="Path-49" class="cls-5" d="m36.98,0h-12.86v26.45h14.47V1.68c0-.44-.17-.87-.47-1.19C37.83.18,37.41,0,36.98,0Z"/>
      <path id="Rectangle-13" class="cls-2" d="m24.12,8.82h14.48v8.82h-14.48v-8.82Z"/>
      <path id="Rectangle-14" class="cls-3" d="m24.12,17.63h14.48v8.82h-14.48v-8.82Z"/>
      <g id="dropshadow-3" class="cls-12">
        <path id="Path-50" class="cls-7" d="m19.89,7.2h-8.41c-.34.01-.61.29-.6.63v19.61c-.01.34.26.63.6.64,0,0,0,0,0,0h8.41c.68-.02,1.22-.58,1.2-1.26,0,0,0,0,0,0V8.46c.02-.68-.52-1.24-1.2-1.26,0,0,0,0,0,0Z"/>
        <path id="Path-51" class="cls-6" d="m17.68,10.51h-8v20.24h8c.9,0,1.62-.73,1.62-1.63V12.12c-.01-.89-.73-1.6-1.62-1.61Z"/>
        <path id="Path-52" class="cls-11" d="m17.68,9.34h-8v20.22h8c.89,0,1.61-.73,1.62-1.62V10.94c-.02-.88-.74-1.59-1.62-1.6Z"/>
        <path id="Path-53" class="cls-6" d="m19.42,7.6h-8.4c-.33.01-.6.29-.6.62v19.62c-.01.34.25.62.59.63,0,0,0,0,.01,0h8.4c.68-.01,1.22-.57,1.21-1.25,0,0,0,0,0-.01V8.85c.02-.67-.5-1.23-1.17-1.25-.01,0-.02,0-.03,0h0Z"/>
        <path id="Path-54" class="cls-6" d="m19.41,8.11h-8.41c-.34.01-.61.3-.6.64,0,0,0,0,0,0v19.41c0,.34.26.61.6.63h8.41c.67-.03,1.2-.59,1.17-1.27,0,0,0-.02,0-.02V9.37c.02-.67-.5-1.23-1.17-1.26Z"/>
        <path id="Path-55" class="cls-8" d="m18.05,6.63h-8.4v16.46h-.12v2.58c0,.34.26.61.6.62h0l6.68-1.28c.67,0,2.45-.6,2.45-1.29V7.89c.02-.68-.52-1.24-1.2-1.26,0,0,0,0-.01,0Z"/>
        <path id="Path-56" class="cls-11" d="m17.68,9.9h-8v20.22h8c.89,0,1.61-.73,1.62-1.62V11.5c-.02-.88-.74-1.59-1.62-1.6Z"/>
        <path id="Path-57" class="cls-10" d="m17.69,8.13h-8v19.78h8c.89,0,1.61-.73,1.61-1.62V9.75c0-.89-.72-1.61-1.61-1.62Z"/>
        <path id="Path-58" class="cls-10" d="m17.68,8.13h-8v19.72h8c.89,0,1.62-.73,1.62-1.62V9.75c0-.89-.73-1.62-1.62-1.62Z"/>
        <path id="Path-59" class="cls-10" d="m17.68,8.53h-8v20.22h8c.89,0,1.61-.71,1.62-1.6,0,0,0-.01,0-.02V10.13c-.02-.88-.74-1.59-1.62-1.6Z"/>
        <path id="Path-60" class="cls-11" d="m17.68,8.91h-8v20.22h8c.9-.01,1.62-.74,1.62-1.64V10.49c-.02-.88-.74-1.58-1.62-1.58Z"/>
        <path id="Path-61" class="cls-6" d="m19.21,8.75h-8.4c-.34,0-.61.27-.61.61,0,0,0,.01,0,.02v18.37c0,.34.27.62.61.63h8.4c.68-.02,1.22-.58,1.2-1.26,0,0,0,0,0,0V9.96c0-.66-.54-1.2-1.2-1.21h0Z"/>
        <path id="Path-62" class="cls-11" d="m18.28,8.75h-8.39c-.07-.02-.15-.02-.22,0v19.16c.07,0,.15,0,.22,0h8.41c.68-.02,1.22-.58,1.2-1.26,0,0,0,0,0,0V9.96c.02-.67-.51-1.24-1.18-1.26,0,0-.01,0-.02,0l-.02.05Z"/>
        <path id="Path-63" class="cls-10" d="m16.17,7.61h-6.12c-.34,0-.61.28-.6.62,0,0,0,0,0,.01v18.4c0,.33.27.61.6.62h8.41c.68-.02,1.21-.57,1.2-1.25V9.42c0-.74-1.63-1.15-1.81-1.38-.52-.28-1.09-.43-1.68-.43h0Z"/>
        <path id="Path-64" class="cls-6" d="m18.81,9.6h-8.41c-.34.02-.6.29-.6.63v18.41c-.01.34.26.63.6.64,0,0,0,0,0,0h8.41c.67-.02,1.21-.58,1.2-1.25V10.86c.02-.68-.51-1.24-1.19-1.26h0Z"/>
        <path id="Path-65" class="cls-6" d="m18.05,6.98h-8.4v16.47h-.12v2.58c-.01.34.25.62.59.63,0,0,0,0,.01,0l6.68-1.29c.67,0,2.45-.6,2.45-1.29v-15.84c.02-.68-.52-1.24-1.2-1.26,0,0,0,0-.01,0Z"/>
        <path id="Path-66" class="cls-9" d="m18.05,7.3h-8.4v16.45h-.12v2.57c-.01.34.25.62.59.63,0,0,0,0,.01,0l6.68-1.28c.67,0,2.45-.6,2.45-1.29v-15.82c.02-.68-.52-1.24-1.2-1.26,0,0,0,0-.01,0Z"/>
      </g>
      <path id="Back_Plate-3" data-name="Back Plate-3" class="cls-3" d="m1.61,7.55h16.08c.91.03,1.63.78,1.61,1.69v16.79c.03.91-.67,1.68-1.58,1.72H1.61c-.91-.02-1.63-.76-1.61-1.67,0,0,0,0,0-.01V9.24c-.02-.91.7-1.66,1.61-1.69Z"/>
      <path id="Path-67" class="cls-1" d="m4.38,23.93l3.79-6.18-3.48-6.1h2.8l1.89,3.9c.13.28.25.57.36.86.12-.29.26-.59.4-.86l2-3.87h2.57l-3.53,6.07,3.65,6.17h-2.74l-2.2-4.25c-.1-.19-.19-.38-.27-.57-.07.19-.15.38-.26.55l-2.25,4.29h-2.73Z"/>
    </g>
  </g>
</svg>