<?xml version="1.0" encoding="UTF-8"?>
<svg id="Layer_1" data-name="Layer 1" xmlns="http://www.w3.org/2000/svg" viewBox="0 0 609.19 698.93">
 <style>
        path {
            fill: black;
        }
        @media (prefers-color-scheme: dark) {
            path { fill: white; }
        }
    </style>
  <path  d="m0,0h247.49v698.93h-67.36V40.07h-23.43v658.86h-65.9V40.07h-23.43v658.86H0V0Z"/>
  <path  d="m269.45,657.93h83.47c4.39,0,5.86-1.86,5.86-4.66v-10.25h-89.33V45.66c0-27.96,27.82-45.66,73.22-45.66h84.94v588.03h-67.36V40.07h-17.57c-2.93,0-5.86,2.8-5.86,5.59v557.28h90.79v50.32c0,27.96-26.36,45.66-74.69,45.66h-83.47v-41Z"/>
  <path  d="m449.56,0h159.62v632.76c0,26.09-27.82,43.8-70.29,43.8h-21.97v22.37h-67.36V0Zm86.4,636.49c2.93,0,4.39-1.86,4.39-4.66V40.07h-23.43v596.42h19.04Z"/>
</svg>